<svg xmlns="http://www.w3.org/2000/svg" viewBox="0 0 120 120"><defs><style>.cls-1{fill:none;}.cls-2{fill:#333;}</style></defs><title>se_air_conditioning</title><g id="Layer_2" data-name="Layer 2"><g id="icons-open_converted_333333_120x120" data-name="icons-open converted_333333_120x120"><rect class="cls-1" width="120" height="120"/><path class="cls-2" d="M14.79,107a3.5,3.5,0,0,1-3.11-1.9l-6.9-13.4C.55,86.47,0,68.76,0,68a3.5,3.5,0,0,1,3.4-3.59A3.46,3.46,0,0,1,7,67.78c.29,10.5,2.15,18.06,3.14,19.44a3.5,3.5,0,0,1,.66.9l6.05,11.76,96.14-6V25.2l-13.69-5L11.83,46.85,9.18,51.1,47.7,41l30.61-8,10.1-2.62,2.84-.73c1.43-.37,3.06-.78,4.47.8a3.5,3.5,0,0,1,.65,3.63c-4.44,11.22-3.62,34.65,1.47,41.8a3.56,3.56,0,0,1,.3.5l4,8.18a3.5,3.5,0,0,1-2.83,5L82.14,91.23A3.52,3.52,0,0,1,78.55,89l-1.18-3.08L25.91,91.15a3.5,3.5,0,0,1-6.56,2.4l-1.75-4a3.5,3.5,0,0,1,2.85-4.89l58.87-6a3.51,3.51,0,0,1,3.62,2.23L84.13,84l9.5-.88L92,79.75c-5.8-8.52-6.79-28.62-3.92-42C72.49,41.8,29.56,53,5,59.43A3.5,3.5,0,0,1,.62,55.52a27.38,27.38,0,0,1,1.81-6.78,3.61,3.61,0,0,1,.24-.45L6.59,42a3.5,3.5,0,0,1,1.95-1.49l89.85-27.4a3.49,3.49,0,0,1,2.23.06l17.09,6.27A3.5,3.5,0,0,1,120,22.75V97.14a3.5,3.5,0,0,1-3.28,3.49L15,107ZM10.06,87.14l0,0Z"/></g></g></svg>
