<svg xmlns="http://www.w3.org/2000/svg" viewBox="0 0 120 120"><defs><style>.cls-1{fill:#333;}</style></defs><title>se_burglar_alarm</title><g id="Layer_2" data-name="Layer 2"><g id="icons-open_converted_333333_120x120" data-name="icons-open converted_333333_120x120"><path class="cls-1" d="M116.87,113.75H79.3V95.82l7.83-6.5,4.49,15.53a3.12,3.12,0,0,0,3,2.26l22.25.1h0a3.12,3.12,0,0,0,0-6.25L97,100.87,91.81,83a3.12,3.12,0,0,0-5-1.54L74.18,91.95a3.13,3.13,0,0,0-1.13,2.41v19.39H68.63V91.89l14.31-14a3.13,3.13,0,0,0,.59-3.67L77,61.58A3.13,3.13,0,0,0,71.86,61c0,.06-5,5.71-7.19,8a3.57,3.57,0,0,1-2.32,1.25H50.28c-.55,0-1.48-.24-1.48-1.33,0-.32,0-1.27,1.34-1.43h9.11a3.12,3.12,0,0,0,2.35-1.06L73.1,53.24a3.13,3.13,0,0,0,.11-4L70.3,45.53a3.13,3.13,0,0,0-1.63-1.08,5.45,5.45,0,0,1-4.1-5.13,5.74,5.74,0,0,1,11.45,0,5.1,5.1,0,0,1-.37,1.9,3.13,3.13,0,1,0,5.81,2.31,11.33,11.33,0,0,0,.81-4.21,12,12,0,0,0-24,0A11.67,11.67,0,0,0,66,50.13l.74.94-8.86,10.1H49.92c-3,.21-7.37,2.43-7.37,7.67s4.43,7.42,7.57,7.57h12a9.43,9.43,0,0,0,7-3.14c1.12-1.16,2.86-3.08,4.38-4.78L76.92,75,63.32,88.35a3.12,3.12,0,0,0-.94,2.23v23.17H6.25V6.25h9.27l-.33,3.12a3.13,3.13,0,0,0,2.63,3.41l10.32,1.6L20.87,24.82l-3-2.27a3.12,3.12,0,0,0-3.78,5l5.59,4.23a3.15,3.15,0,0,0,2.38.6,3.12,3.12,0,0,0,2.08-1.3l12-17.22A3.12,3.12,0,0,0,34,9L21.71,7.06l.38-3.61A3.12,3.12,0,0,0,19,0H3.12A3.13,3.13,0,0,0,0,3.12V116.87A3.13,3.13,0,0,0,3.12,120H116.87a3.12,3.12,0,1,0,0-6.25Z"/><path class="cls-1" d="M88.92,49.71,105.31,49l8.16,13a2.12,2.12,0,0,1,.26,1.13,1.52,1.52,0,0,1-.68.76,1.13,1.13,0,0,1-1.85-.34l-6.52-10.14a3.11,3.11,0,0,0-2.87-1.43L90,52.85a3.13,3.13,0,0,0-2.59,4.45l8.79,18.56,4.6,18.67a3.12,3.12,0,0,0,2.83,2.37l13,.85h.2a3.12,3.12,0,0,0,.2-6.24l-10.72-.7-4.12-16.75a3.1,3.1,0,0,0-.21-.59L95,58.73l5.39-.41,5.51,8.57a8.09,8.09,0,0,0,4.85,3.4,8,8,0,0,0,9.07-5.93,8.1,8.1,0,0,0-1.13-5.78l-9.09-14.44a3,3,0,0,0-2.78-1.45l-18.2.79a3.12,3.12,0,1,0,.27,6.24Z"/><path class="cls-1" d="M24.85,36.38A3.13,3.13,0,0,0,27,42.24c13-4.78,21.7-17.76,20.3-30.17a3.12,3.12,0,1,0-6.21.7C42.19,22.41,35.2,32.56,24.85,36.38Z"/><path class="cls-1" d="M29.65,49.16a3.12,3.12,0,0,0,1.08,6.05,3.08,3.08,0,0,0,1.08-.2c14.89-5.5,30-24,28.88-42.78a3.12,3.12,0,0,0-6.24.38C55.43,28.39,42.17,44.53,29.65,49.16Z"/></g></g></svg>
