<svg xmlns="http://www.w3.org/2000/svg" viewBox="0 0 120.01 120"><defs><style>.cls-1{fill:none;}.cls-2{fill:#333;}</style></defs><title>se_automatic_watering</title><g id="Layer_2" data-name="Layer 2"><g id="icons-open_converted_333333_120x120" data-name="icons-open converted_333333_120x120"><rect class="cls-1" width="120" height="120"/><circle class="cls-2" cx="16.2" cy="75.58" r="3.42" transform="translate(-19.83 7.19) rotate(-15.68)"/><circle class="cls-2" cx="15.92" cy="61.92" r="3.42" transform="translate(-31.46 19) rotate(-33.41)"/><circle class="cls-2" cx="17.95" cy="48.4" r="3.42" transform="translate(-22.92 16.87) rotate(-32)"/><circle class="cls-2" cx="22.22" cy="35.16" r="3.42" transform="translate(-8.29 6.89) rotate(-14.89)"/><circle class="cls-2" cx="28.55" cy="23.05" r="3.42" transform="translate(-1.87 2.53) rotate(-4.91)"/><circle class="cls-2" cx="36.78" cy="12.15" r="3.42" transform="translate(-0.36 1.16) rotate(-1.79)"/><circle class="cls-2" cx="30.38" cy="52.33" r="3.42" transform="translate(-3.84 2.42) rotate(-4.3)"/><circle class="cls-2" cx="27.26" cy="67.56" r="3.42" transform="translate(-45.57 65.84) rotate(-66.67)"/><circle class="cls-2" cx="39.68" cy="61.84" r="3.42" transform="translate(-33.1 71.98) rotate(-65.25)"/><circle class="cls-2" cx="35.2" cy="39.44" r="3.42" transform="translate(-12.33 16.3) rotate(-22.29)"/><path class="cls-2" d="M26,85.73H3.5A3.5,3.5,0,0,0,.44,90.92L4,97.37v17a3.5,3.5,0,0,0,7,0v-18a3.5,3.5,0,0,0-.44-1.69l-1.13-2H20.06l-1.13,2a3.5,3.5,0,0,0-.44,1.69v18a3.5,3.5,0,0,0,7,0v-17l3.56-6.45A3.5,3.5,0,0,0,26,85.73Z"/><path class="cls-2" d="M90.66,50.45h.25a10.48,10.48,0,0,0,10.21-10.71h0A10.47,10.47,0,1,0,90.66,50.45ZM88.15,37.6a3.44,3.44,0,0,1,2.42-1.07h.08a3.47,3.47,0,0,1,.08,6.93h-.08a3.47,3.47,0,0,1-2.51-5.86Z"/><path class="cls-2" d="M115.31,34.21A13.94,13.94,0,0,0,98,15.76a13.94,13.94,0,0,0-24.65,5.77A13.94,13.94,0,0,0,66,45.76a13.87,13.87,0,0,0,2.75,14.77,3.5,3.5,0,1,0,5.11-4.79,6.89,6.89,0,0,1-.45-8.93,3.5,3.5,0,0,0-1.23-5.27,6.92,6.92,0,0,1,3.95-13.07,3.5,3.5,0,0,0,3.95-3.71,6.92,6.92,0,0,1,13.29-3.11,3.5,3.5,0,0,0,5.18,1.57,6.92,6.92,0,0,1,9.34,10,3.5,3.5,0,0,0,1.23,5.27,6.92,6.92,0,0,1-4,13.07,3.5,3.5,0,0,0-3.95,3.7,6.92,6.92,0,0,1-13.29,3.11,3.5,3.5,0,0,0-6.59.34,90.21,90.21,0,0,0-3,16.38,24.55,24.55,0,0,0-3.52-2.64c-6.27-3.88-13.38-4.55-18.11-1.69a3.5,3.5,0,0,0-1.68,2.72c-.44,5.51,3.32,11.57,9.59,15.45a21.8,21.8,0,0,0,11.26,3.45c.53,0,1,0,1.54-.09-.07,4-.07,7.77-.07,11.24v10.93a3.5,3.5,0,0,0,7,0V103.49c0-10.71,0-24.73,2.13-36.28A13.95,13.95,0,0,0,108,58.44a13.94,13.94,0,0,0,7.32-24.23Zm-47,48.72a13.82,13.82,0,0,1-6-6.88,13.82,13.82,0,0,1,8.83,2.3,13.81,13.81,0,0,1,6,6.87A13.82,13.82,0,0,1,68.34,82.94Z"/><circle class="cls-2" cx="46.02" cy="47.78" r="3.42" transform="translate(-2.37 2.4) rotate(-2.91)"/><circle class="cls-2" cx="53.5" cy="59.22" r="3.42" transform="translate(-18.35 93.96) rotate(-73.71)"/><circle class="cls-2" cx="41.37" cy="27.79" r="3.42" transform="translate(-3.11 5.31) rotate(-7.08)"/><circle class="cls-2" cx="52.58" cy="35.6" r="3.42" transform="translate(-3.26 5.36) rotate(-5.66)"/><circle class="cls-2" cx="49.3" cy="17.61" r="3.42" transform="translate(-2.99 15.15) rotate(-16.96)"/><circle class="cls-2" cx="58.99" cy="9.01" r="3.42" transform="translate(-0.54 13.18) rotate(-12.7)"/><path class="cls-2" d="M40.2,103a3.5,3.5,0,0,0-3.95,3,38.58,38.58,0,0,0,0,8.82,3.5,3.5,0,0,0,3.47,3.1l.41,0A3.5,3.5,0,0,0,43.19,114a31.93,31.93,0,0,1,0-7.05A3.5,3.5,0,0,0,40.2,103Z"/><path class="cls-2" d="M53,103A3.5,3.5,0,0,0,50,107a36.93,36.93,0,0,1,0,7.16,3.5,3.5,0,0,0,3.19,3.78h.3a3.5,3.5,0,0,0,3.48-3.21,42.51,42.51,0,0,0,0-8.72A3.5,3.5,0,0,0,53,103Z"/><path class="cls-2" d="M67.69,97.84a3.5,3.5,0,0,0-4,2.94,57.8,57.8,0,0,0,0,14,3.5,3.5,0,0,0,3.47,3.08l.42,0A3.5,3.5,0,0,0,70.65,114a51.69,51.69,0,0,1,0-12.18A3.5,3.5,0,0,0,67.69,97.84Z"/><path class="cls-2" d="M94.17,103a3.5,3.5,0,0,0-3,3.92,27.43,27.43,0,0,1,0,7.11,3.5,3.5,0,0,0,3.11,3.85l.38,0a3.5,3.5,0,0,0,3.48-3.13,34.84,34.84,0,0,0,0-8.76A3.51,3.51,0,0,0,94.17,103Z"/><path class="cls-2" d="M108.78,97.84a3.5,3.5,0,0,0-3.91,3.05,50.69,50.69,0,0,0,0,13.93,3.5,3.5,0,0,0,3.47,3.09l.41,0a3.5,3.5,0,0,0,3.07-3.88,44.05,44.05,0,0,1,0-12.27A3.49,3.49,0,0,0,108.78,97.84Z"/></g></g></svg>
