<svg xmlns="http://www.w3.org/2000/svg" viewBox="0 0 120 120"><defs><style>.cls-1{fill:none;}.cls-2{fill:#333;}</style></defs><title>se_bell</title><g id="Layer_2" data-name="Layer 2"><g id="icons-open_converted_333333_120x120" data-name="icons-open converted_333333_120x120"><rect class="cls-1" width="120" height="120"/><path class="cls-2" d="M90.75,73.74A14.86,14.86,0,0,1,86,73a10.87,10.87,0,0,1-6.41-5.38c-3.08-6.19.66-14.1,8.51-18a19.17,19.17,0,0,1,6.66-1.94L88.88,10.06a3.5,3.5,0,0,1,2-3.71l1.85-.87c9.74-4.59,14.76.08,16.9,2.07,1,.93,4.18.76,6,.28a3.5,3.5,0,0,1,1.82,6.76c-.83.23-8.29,2.1-12.59-1.92-1.67-1.56-3.56-3.31-8.62-1.1l6.16,39.23a3.5,3.5,0,0,1-4.17,4,11,11,0,0,0-6.95,1.11c-4.56,2.27-6.49,6.37-5.36,8.62a4,4,0,0,0,2.37,1.86A10.52,10.52,0,0,0,96,65.43,12.38,12.38,0,0,0,99.35,63a3.5,3.5,0,1,1,5,4.89,19.36,19.36,0,0,1-5.25,3.8A18.9,18.9,0,0,1,90.75,73.74Z"/><path class="cls-2" d="M25.49,116.47a11.81,11.81,0,0,1-11.48-9,3.5,3.5,0,1,1,6.79-1.69,4.83,4.83,0,0,0,9.37,0,3.5,3.5,0,0,1,3.4-2.66H67.13c-3-4.2-4.65-11.46-6.47-19.73C57.77,70.35,54.18,54.09,43,50.9a3.5,3.5,0,0,1-2.5-2.79,2.2,2.2,0,0,0-4.35,0,3.5,3.5,0,0,1-2.48,2.79C23,54,20.34,68.9,18,82c-1.73,9.79-3.21,18.24-7.46,22.49L6,109.13a3.5,3.5,0,1,1-4.95-5l4.59-4.59C8.3,96.9,9.8,88.37,11.13,80.84,13.56,67,16.55,50,29.84,44.81a9.21,9.21,0,0,1,16.89,0C60.46,50,64.34,67.65,67.49,81.91c1.58,7.17,3.37,15.29,5.76,17.68l4.59,4.59a3.5,3.5,0,0,1-2.47,6H36A11.8,11.8,0,0,1,25.49,116.47Z"/></g></g></svg>
