<svg xmlns="http://www.w3.org/2000/svg" viewBox="0 0 120 120"><defs><style>.cls-1{fill:none;}.cls-2{fill:#333;}</style></defs><title>se_blind</title><g id="Layer_2" data-name="Layer 2"><g id="icons-open_converted_333333_120x120" data-name="icons-open converted_333333_120x120"><rect class="cls-1" width="120" height="120"/><path class="cls-2" d="M116.5,120H3.5a3.5,3.5,0,0,1,0-7H113V7H7V60.49a8.19,8.19,0,1,0,16.39,0,3.5,3.5,0,0,1,7,0,8.19,8.19,0,1,0,16.39,0,3.5,3.5,0,0,1,7,0,8.19,8.19,0,1,0,16.38,0,3.5,3.5,0,0,1,7,0,8.19,8.19,0,1,0,16.38,0,3.5,3.5,0,1,1,7,0,15.19,15.19,0,0,1-26.88,9.69,15.17,15.17,0,0,1-23.38,0,15.18,15.18,0,0,1-23.39,0A15.19,15.19,0,0,1,0,60.49V3.5A3.5,3.5,0,0,1,3.5,0h113A3.5,3.5,0,0,1,120,3.5v113A3.5,3.5,0,0,1,116.5,120Z"/></g></g></svg>
