<svg xmlns="http://www.w3.org/2000/svg" viewBox="0 0 120 120"><defs><style>.cls-1{fill:#333;}.cls-2{fill:none;}</style></defs><title>se_box_internet</title><g id="Layer_2" data-name="Layer 2"><g id="icons-open_converted_333333_120x120" data-name="icons-open converted_333333_120x120"><path class="cls-1" d="M115.86,88.71a3.5,3.5,0,0,0-4.92.44,68.27,68.27,0,0,1-41.57,23.11c-15.78,2.42-30.93-1-41.56-9.24A46.8,46.8,0,0,1,10,68.73,58.17,58.17,0,0,1,22.65,29.08,57.32,57.32,0,0,1,62,7.24C75.11,5.94,87.44,9.63,96.68,17.6c20.53,17.71,12.71,44.37,3,57A36.15,36.15,0,0,1,87.1,85.1C83.13,87,80.67,87,80,86.69a3,3,0,0,1,.07-.9C82.42,74.32,90.84,36,90.92,35.58a3.49,3.49,0,0,0-6.82-1.5c-.05.22-2.81,12.8-5.61,25.71l0,.14a38.11,38.11,0,0,1-3,8.74c-3.25,6.71-8.13,12.11-13.71,15.18-5.2,2.86-10.36,3.32-14.53,1.3s-7-6.35-8-12.2c-1-6.29.17-13.45,3.42-20.16s8.13-12.11,13.72-15.18c5.2-2.85,10.36-3.32,14.53-1.3.36.17.71.37,1,.57a3.49,3.49,0,1,0,3.65-6c-.52-.32-1.07-.62-1.63-.89C67.65,27,60.21,27.51,53,31.49c-6.85,3.76-12.75,10.25-16.64,18.25S31,66.39,32.3,74.09c1.36,8.14,5.56,14.3,11.83,17.34a19.67,19.67,0,0,0,8.62,1.95A25.69,25.69,0,0,0,65.08,90a36.15,36.15,0,0,0,8.35-6.39c-.06.29-.12.58-.17.84-.79,3.94.64,7.15,3.83,8.61,6.89,3.14,19.75-3.34,28.09-14.15a56.81,56.81,0,0,0,11.43-31.52,42.93,42.93,0,0,0-15.36-35c-10.71-9.24-24.9-13.51-40-12a64.36,64.36,0,0,0-44.13,24.5A65.14,65.14,0,0,0,3,69.2c1.08,15.9,8.36,29.86,20.48,39.31C33.12,116,45.83,120,59.47,120a72.75,72.75,0,0,0,11-.84A74.35,74.35,0,0,0,116.3,93.63a3.5,3.5,0,0,0-.44-4.92"/><rect class="cls-2" width="120" height="120"/></g></g></svg>
