<svg xmlns="http://www.w3.org/2000/svg" viewBox="0 0 120 120"><defs><style>.cls-1{fill:none;}.cls-2{fill:#333;}</style></defs><title>se_surveillance_single_camera</title><g id="Layer_2" data-name="Layer 2"><g id="icons-open_converted_333333_120x120" data-name="icons-open converted_333333_120x120"><rect class="cls-1" width="120" height="120"/><path class="cls-2" d="M116.5,119.63a3.5,3.5,0,0,1-3.5-3.5V86.06H81a3.5,3.5,0,0,1-2.95-1.61L53.49,46.11,23.81,51.26a3.5,3.5,0,0,1-4-2.8L17.78,38,12,39a3.5,3.5,0,0,1-3.55-1.56L.56,25.17a3.5,3.5,0,0,1,2.33-5.34L82.6,5.67a3.5,3.5,0,0,1,4.06,2.87l5,29.78a3.5,3.5,0,0,1-2.69,4L78.56,44.64l12.8,22.14L113,66.67V3.87a3.5,3.5,0,0,1,7,0V70.15a3.5,3.5,0,0,1-3.48,3.5l-27.16.15h0a3.5,3.5,0,0,1-3-1.75L70.11,44a3.5,3.5,0,0,1,2.27-5.17l11.8-2.64-3.84-23L9.29,25.81l3.79,5.89L20,30.49a3.5,3.5,0,0,1,4,2.8l2,10.48,28.58-5a3.5,3.5,0,0,1,3.54,1.56L82.94,79.06H116.5a3.5,3.5,0,0,1,3.5,3.5v33.58A3.5,3.5,0,0,1,116.5,119.63Z"/></g></g></svg>
