<svg xmlns="http://www.w3.org/2000/svg" viewBox="0 0 120 120"><defs><style>.cls-1{fill:none;}.cls-2{fill:#333;}</style></defs><title>se_ceiling_fan</title><g id="Layer_2" data-name="Layer 2"><g id="icons-open_converted_333333_120x120" data-name="icons-open converted_333333_120x120"><rect class="cls-1" width="120" height="120"/><path class="cls-2" d="M41.06,54.1a3.23,3.23,0,0,0,1.41-.32,13.36,13.36,0,0,1,2.39-.89,3.21,3.21,0,0,0,2.38-3.1V13.37a3.21,3.21,0,0,0-6.43,0V47.48c-.39.16-.78.33-1.16.52a3.21,3.21,0,0,0,1.41,6.1Z"/><path class="cls-2" d="M53.56,52.93c9.49,2,9.93,14,9.94,14.51a3.22,3.22,0,0,0,3.21,3.15h.07a3.21,3.21,0,0,0,3.15-3.28c-.12-5.62-2.94-16.39-12.5-19.94v-34a3.21,3.21,0,0,0-6.43,0V49.78A3.23,3.23,0,0,0,53.56,52.93Z"/><path class="cls-2" d="M119.12,73.88c-.92-1.42-2.92-3-7.05-2.61l-36.9,2a3.21,3.21,0,1,0,.36,6.41l37-2.06a8.35,8.35,0,0,1,.95,0c-.64,2.45-5.16,7.85-7.28,8.48L69,82.86c0-.11,0-.22,0-.33,0-6.17-5.94-11.29-14.79-12.74a30.6,30.6,0,0,0-8.84-.11,24.59,24.59,0,0,0-8.28,2.58L6.58,47.8A8,8,0,0,1,10,45.71c2.52-.89,6.09-1.25,8.8.26l18,20.44a3.21,3.21,0,0,0,4.82-4.25L23.33,41.34a3,3,0,0,0-.68-.58C16,36.49,5.74,38.83,1.72,43.6c-2.26,2.68-2.29,6-.07,8.44a3,3,0,0,0,.37.35l30,24a9.93,9.93,0,0,0-2.21,6.11c0,3.28,1.72,6.24,4.59,8.52L15.7,102.26a7.34,7.34,0,0,1-6.72.62,3.87,3.87,0,0,1-1.67-1.28,3.65,3.65,0,0,1,.58-.27l.35-.15,17.57-8.81a3.21,3.21,0,0,0-2.88-5.74L5.52,95.37c-2.7,1-4.4,3-4.69,5.36-.32,2.63,1.11,5.27,3.83,7.08a12.62,12.62,0,0,0,7,2,14.77,14.77,0,0,0,7.33-2L41.17,94.47a29.31,29.31,0,0,0,16.56,0,3.21,3.21,0,1,0-1.89-6.14,22.22,22.22,0,0,1-6.44.92c-7.54,0-13.18-3.54-13.18-6.7,0-2.52,3.75-5.63,10-6.49a23.92,23.92,0,0,1,6.93.09c5.36.88,9.4,3.63,9.4,6.39A3.1,3.1,0,0,1,62.22,84a3.75,3.75,0,0,0,3,5L106,92.54h.24c4.24,0,9.56-5.77,11.87-9.77C120.78,78.26,120.12,75.44,119.12,73.88Z"/></g></g></svg>
