<svg xmlns="http://www.w3.org/2000/svg" viewBox="0 0 120 120"><defs><style>.cls-1{fill:none;}.cls-2{fill:#333;}</style></defs><title>se_lightning_protection_1</title><g id="Layer_2" data-name="Layer 2"><g id="icons-open_converted_333333_120x120" data-name="icons-open converted_333333_120x120"><rect class="cls-1" width="120" height="120"/><path class="cls-2" d="M113.5,120H6.5A6.51,6.51,0,0,1,0,113.5V6.5A6.51,6.51,0,0,1,6.5,0H43a3.5,3.5,0,0,1,0,7H7V113H113V7H77a3.5,3.5,0,0,1,0-7h36.5A6.51,6.51,0,0,1,120,6.5v107A6.51,6.51,0,0,1,113.5,120Zm0-113h0Z"/><path class="cls-2" d="M60.45,12.5a3.33,3.33,0,0,0-3.33,3.33V27.53A11.27,11.27,0,0,0,48.65,38.2c0,6.17,5.29,11.18,11.8,11.18a3.33,3.33,0,0,0,3.33-3.33V15.83A3.33,3.33,0,0,0,60.45,12.5ZM55.31,38.2a4.29,4.29,0,0,1,1.8-3.41v6.82A4.29,4.29,0,0,1,55.31,38.2Z"/><path class="cls-2" d="M63.53,72a3.24,3.24,0,0,0-.44-.69,2.77,2.77,0,0,0-.23-.37L44.21,51.32a3.33,3.33,0,1,0-4.83,4.59L57.11,74.58v29.59a3.33,3.33,0,0,0,6.67,0V73.25a2.9,2.9,0,0,0-.1-.47A3.16,3.16,0,0,0,63.53,72Z"/></g></g></svg>
