<svg xmlns="http://www.w3.org/2000/svg" viewBox="0 0 120.08 120"><defs><style>.cls-1{fill:none;}.cls-2{fill:#333;}</style></defs><title>se_cooktop</title><g id="Layer_2" data-name="Layer 2"><g id="icons-open_converted_333333_120x120" data-name="icons-open converted_333333_120x120"><rect class="cls-1" width="120" height="120"/><path class="cls-2" d="M116.5,105a3.5,3.5,0,0,0-3.5,3.5,4.5,4.5,0,0,1-4.5,4.5h-97A4.5,4.5,0,0,1,7,108.5v-97A4.5,4.5,0,0,1,11.5,7h97a4.5,4.5,0,0,1,4.5,4.5V40.61a3.5,3.5,0,0,0,7,0V11.5A11.51,11.51,0,0,0,108.5,0h-97A11.51,11.51,0,0,0,0,11.5v97A11.51,11.51,0,0,0,11.5,120h97A11.51,11.51,0,0,0,120,108.5,3.5,3.5,0,0,0,116.5,105Z"/><path class="cls-2" d="M56.3,35.06A21.31,21.31,0,1,0,35,56.36,21.33,21.33,0,0,0,56.3,35.06ZM35,49.36A14.31,14.31,0,1,1,49.3,35.06,14.32,14.32,0,0,1,35,49.36Z"/><path class="cls-2" d="M13.69,88.3A17.95,17.95,0,1,0,31.64,70.35,18,18,0,0,0,13.69,88.3Zm28.9,0A10.95,10.95,0,1,1,31.64,77.35,11,11,0,0,1,42.58,88.3Z"/><path class="cls-2" d="M84.94,63.64a21.31,21.31,0,1,0,21.31,21.31A21.33,21.33,0,0,0,84.94,63.64Zm0,35.62A14.31,14.31,0,1,1,99.25,84.94,14.32,14.32,0,0,1,84.94,99.25Z"/><path class="cls-2" d="M88.3,13.75A17.95,17.95,0,1,0,106.25,31.7,18,18,0,0,0,88.3,13.75Zm0,28.9A10.95,10.95,0,1,1,99.25,31.7,11,11,0,0,1,88.3,42.65Z"/><circle class="cls-2" cx="116.58" cy="54.1" r="3.5"/><circle class="cls-2" cx="116.58" cy="95.24" r="3.5"/><circle class="cls-2" cx="116.58" cy="81.53" r="3.5"/><circle class="cls-2" cx="116.58" cy="67.81" r="3.5"/></g></g></svg>
