<svg xmlns="http://www.w3.org/2000/svg" viewBox="0 0 120 120"><defs><style>.cls-1{fill:none;}.cls-2{fill:#333;}</style></defs><title>se_daynight_mode</title><g id="Layer_2" data-name="Layer 2"><g id="icons-open_converted_333333_120x120" data-name="icons-open converted_333333_120x120"><rect class="cls-1" width="120" height="120"/><path class="cls-2" d="M85.87,90.37A3.5,3.5,0,0,0,87,83.56c-.12,0-12.29-4.38-25.63-17.3C48.35,53.63,43,32.12,43,31.9a3.5,3.5,0,0,0-6.8,1.64c.23,1,5.84,23.67,20.36,37.74S84.16,90,84.72,90.17A3.49,3.49,0,0,0,85.87,90.37Z"/><path class="cls-2" d="M48.31,95.47a3.5,3.5,0,0,0,4.58,1.89,23.08,23.08,0,0,0,6.86-4.42,3.5,3.5,0,0,0,.87-3.85,3.54,3.54,0,0,0-3.27-2.21H57.1A19.43,19.43,0,0,1,39.43,59.4a3.5,3.5,0,0,0-4.57-4.67A23.14,23.14,0,0,0,44,99.12a3.5,3.5,0,1,0,0-7A16.14,16.14,0,0,1,30.7,66.87q0,.29,0,.58a26.46,26.46,0,0,0,17.79,25A3.5,3.5,0,0,0,48.31,95.47Z"/><path class="cls-2" d="M61.42,47.94c.66.15,1.58.33,2.72.54l.38.07-1.08,1.58c-.92,1.37-1.65,2.47-2.16,3.27-.36.56-.62,1-.77,1.28a4.62,4.62,0,0,0,6.66,6.25c.31-.2.73-.49,1.26-.89.78-.58,1.85-1.4,3.17-2.44C73.66,56,75.73,54.32,76,54.09a3.5,3.5,0,0,0,1.32-2.74v-.14A3.5,3.5,0,0,0,72.54,48,3.49,3.49,0,0,0,72,46.19a6.23,6.23,0,0,1-.77-1.64,3.5,3.5,0,0,0-1.35-1.86A3.5,3.5,0,0,0,71,40.64a6.81,6.81,0,0,1,.5-1.7,3.5,3.5,0,0,0,.21-2.25,3.49,3.49,0,0,0,2.15-.6,6.6,6.6,0,0,1,1.68-.82A3.49,3.49,0,0,0,77.3,34a3.5,3.5,0,0,0,2.05,1.13,7.06,7.06,0,0,1,1.73.51,3.5,3.5,0,0,0,2.23.21A3.5,3.5,0,0,0,83.9,38a6.11,6.11,0,0,1,.76,1.63A3.5,3.5,0,0,0,86,41.46a3.5,3.5,0,0,0-1.13,2,7,7,0,0,1-.52,1.72,3.5,3.5,0,0,0-.21,2.24,3.46,3.46,0,0,0-2.12.59,6.09,6.09,0,0,1-1.63.77A3.5,3.5,0,0,0,78,51.43l-1.7,7.76a3.5,3.5,0,1,0,6.84,1.5l1.16-5.27L86,56.56c1.37.92,2.47,1.65,3.26,2.15.55.35,1,.61,1.31.8a5.43,5.43,0,0,0,2.67.77A4.51,4.51,0,0,0,96.41,59a4.65,4.65,0,0,0,.36-6.12c-.2-.31-.49-.72-.91-1.28-.58-.78-1.4-1.84-2.44-3.16l-1.35-1.7.18-.05c1.1-.31,2-.59,2.69-.83,1.07-.37,4.34-1.48,4.17-5s-3.45-4.27-4.69-4.55c-.66-.15-1.58-.33-2.72-.54l-.37-.07L92.41,34c.92-1.37,1.65-2.47,2.16-3.27.36-.56.62-1,.81-1.34a4.61,4.61,0,0,0-.59-5.84,4.49,4.49,0,0,0-3.17-1.32,5.39,5.39,0,0,0-2.95,1c-.31.2-.72.5-1.25.89-.78.58-1.85,1.4-3.17,2.44l-1.71,1.35-.05-.18c-.31-1.1-.59-2-.83-2.71-.35-1-1.43-4.14-4.78-4.14h-.23c-3.56.17-4.32,3.57-4.57,4.69-.15.65-.32,1.56-.53,2.71l-.07.39L69.88,27.6c-1.37-.93-2.47-1.65-3.28-2.17-.55-.35-1-.6-1.33-.8a5.42,5.42,0,0,0-2.64-.76,4.49,4.49,0,0,0-3.19,1.34,4.69,4.69,0,0,0-.33,6.15c.2.3.48.7.88,1.23.58.78,1.4,1.84,2.43,3.17l1.35,1.71-.18.05L62,38l-1.13.37c-1.07.37-4.33,1.48-4.16,5S60.19,47.66,61.42,47.94Z"/><path class="cls-2" d="M116.5,0H80a3.5,3.5,0,0,0,0,7h33V113H7V7H40a3.5,3.5,0,0,0,0-7H3.5A3.5,3.5,0,0,0,0,3.5v113A3.5,3.5,0,0,0,3.5,120h113a3.5,3.5,0,0,0,3.5-3.5V3.5A3.5,3.5,0,0,0,116.5,0Z"/></g></g></svg>
