<svg xmlns="http://www.w3.org/2000/svg" viewBox="0 0 120 120"><defs><style>.cls-1{fill:none;}.cls-2{fill:#333;}</style></defs><title>se_dimmer</title><g id="Layer_2" data-name="Layer 2"><g id="icons-open_converted_333333_120x120" data-name="icons-open converted_333333_120x120"><rect class="cls-1" width="120" height="120"/><path class="cls-2" d="M113.5,120H6.5A6.51,6.51,0,0,1,0,113.5V6.5A6.51,6.51,0,0,1,6.5,0H43a3.5,3.5,0,0,1,0,7H7V113H113V7H77a3.5,3.5,0,0,1,0-7h36.5A6.51,6.51,0,0,1,120,6.5v107A6.51,6.51,0,0,1,113.5,120Zm0-113h0Z"/><path class="cls-2" d="M57.23,103.33a8.14,8.14,0,0,1-6.48-2.79c-2.92-3.44-2.17-8.59-2.07-9.17A3.33,3.33,0,0,1,52,88.58H65.45l.34,0a1.28,1.28,0,0,0,.66-.17,1.73,1.73,0,0,0,.18-1,2.75,2.75,0,0,0-.38-1.75l-11.55-.08A7.08,7.08,0,0,1,46.76,78c0-3.46,1.37-5.37,2.51-6.36A6.83,6.83,0,0,1,54.21,70h12.1v-.4c0-6.62,2.24-12.55,6.31-16.7a17.16,17.16,0,0,0,5.13-12.3A17.31,17.31,0,1,0,47.19,51.82c4.45,4,6.59,6.3,6.63,13.32a3.33,3.33,0,0,1-3.31,3.36h0a3.34,3.34,0,0,1-3.33-3.31c0-4.48-.81-5.18-4.58-8.55a3.36,3.36,0,0,1-.3-.31A24,24,0,1,1,84.42,40.65a23.74,23.74,0,0,1-7.08,17c-2.76,2.82-4.36,7.2-4.36,12v3.73a3.33,3.33,0,0,1-3.33,3.33H54.06a3.13,3.13,0,0,1-.46,0A4.92,4.92,0,0,0,53.42,78a1.93,1.93,0,0,0,.14.91A2.36,2.36,0,0,0,54,79h0a3.56,3.56,0,0,1,.49,0H66a7,7,0,0,1,4.82,1.92,8.67,8.67,0,0,1,2.45,6.59,7.62,7.62,0,0,1-2.38,5.92,7.82,7.82,0,0,1-5.58,1.86H55.38a2.43,2.43,0,0,0,.46,1c.1.12.37.44,1.39.44,2.1,0,3.23,0,3.83,0a3.5,3.5,0,0,1,1.31-.13A3.58,3.58,0,0,1,65.6,100C65.43,103.33,63.2,103.33,57.23,103.33Z"/><path class="cls-2" d="M102.23,83.68H96.05V77.51a3.33,3.33,0,0,0-6.67,0v6.18H83.21a3.33,3.33,0,1,0,0,6.67h6.18v6.17a3.33,3.33,0,0,0,6.67,0V90.35h6.17a3.33,3.33,0,1,0,0-6.67Z"/><path class="cls-2" d="M36.78,90.35h-19a3.33,3.33,0,1,1,0-6.67h19a3.33,3.33,0,1,1,0,6.67Z"/></g></g></svg>
