<svg xmlns="http://www.w3.org/2000/svg" viewBox="0 0 120.45 120"><defs><style>.cls-1{fill:none;}.cls-2{fill:#333;}</style></defs><title>se_dishwasher</title><g id="Layer_2" data-name="Layer 2"><g id="icons-open_converted_333333_120x120" data-name="icons-open converted_333333_120x120"><rect class="cls-1" x="0.45" width="120" height="120"/><circle class="cls-2" cx="62.11" cy="3.32" r="3.32"/><circle class="cls-2" cx="62.11" cy="16.62" r="3.32"/><circle class="cls-2" cx="82.05" cy="14.84" r="3.32" transform="translate(3.57 43.01) rotate(-30)"/><circle class="cls-2" cx="42.17" cy="14.84" r="3.32" transform="translate(8.24 43.94) rotate(-60.01)"/><circle class="cls-2" cx="75.41" cy="3.32" r="3.32" transform="translate(8.44 38.15) rotate(-30)"/><circle class="cls-2" cx="48.82" cy="3.32" r="3.32" transform="translate(21.53 43.94) rotate(-60)"/><path class="cls-2" d="M60.36,37.28a31.4,31.4,0,0,1,39,22.84,3.5,3.5,0,0,0,6.81-1.63,38.4,38.4,0,0,0-47.69-28,3.5,3.5,0,0,0,1.89,6.74Z"/><path class="cls-2" d="M68.86,105.82a38.17,38.17,0,0,0,32.51-18,3.5,3.5,0,1,0-5.93-3.72A31.39,31.39,0,0,1,56.7,96.38,3.5,3.5,0,1,0,54,102.83,38.12,38.12,0,0,0,68.86,105.82Z"/><path class="cls-2" d="M116.95,82.46a3.5,3.5,0,0,0-3.5,3.5v23a4,4,0,0,1-4,4H11a4,4,0,0,1-4-4V11a4,4,0,0,1,4-4H35.63a3.5,3.5,0,1,0,0-7H11A11,11,0,0,0,0,11V109a11,11,0,0,0,11,11h98.37a11,11,0,0,0,11-11V86A3.5,3.5,0,0,0,116.95,82.46Z"/><path class="cls-2" d="M109.41,0H88.59a3.5,3.5,0,1,0,0,7h20.81a4,4,0,0,1,4,4V69.68a8.23,8.23,0,0,1-5.11,1.56c-3,0-5-1.23-5.84-2.28a3.5,3.5,0,0,0-5.55,0c-.81,1.05-2.82,2.28-5.84,2.28S86.08,70,85.28,69a3.5,3.5,0,0,0-5.55,0c-.81,1.05-2.82,2.28-5.83,2.28S68.86,70,68.05,69a3.5,3.5,0,0,0-5.55,0c-.81,1.05-2.82,2.28-5.83,2.28S51.64,70,50.83,69c-.05-.07-.11-.12-.17-.18l-.17-.18a3.4,3.4,0,0,0-.33-.28l-.2-.14A3.5,3.5,0,0,0,49.6,68l-.25-.11L49,67.74l-.31-.07-.35,0H48l-.37,0h-.18l-.14,0-.35.09-.34.12-.26.13a3.48,3.48,0,0,0-.36.23l-.1.06-.1.09a3.5,3.5,0,0,0-.33.31l-.16.19a3.56,3.56,0,0,0-.25.36l-.12.2a3.46,3.46,0,0,0-.18.41l-.07.2a3.51,3.51,0,0,0-.1.46c0,.07,0,.13,0,.2a3.44,3.44,0,0,0,0,.46c0,.08,0,.16,0,.23s0,.16,0,.24A25.17,25.17,0,0,0,82.53,88.94a3.5,3.5,0,0,0-3.65-6,18.19,18.19,0,0,1-24.19-4.85,17.39,17.39,0,0,0,2,.12,15.58,15.58,0,0,0,8.61-2.45,16.36,16.36,0,0,0,17.22,0,16.36,16.36,0,0,0,17.22,0,15.58,15.58,0,0,0,8.61,2.45c4.72,0,9-1.87,11.39-5a3.5,3.5,0,0,0,.72-2.13V11A11,11,0,0,0,109.41,0Z"/><path class="cls-2" d="M40.11,65c3.37-3.42,7.57-7.68,7.57-15.59V36.64a3.5,3.5,0,0,0-3.5-3.5H17.72a3.5,3.5,0,0,0-3.5,3.5V49.39c0,6.71,2.95,10.75,6.13,14.11a3.5,3.5,0,0,0,5.08-4.81c-2.67-2.82-4.22-5.25-4.22-9.3V40.14H40.68v9.26c0,5-2.45,7.52-5.56,10.68C31.7,63.54,27.45,67.86,27.45,76V85.4a10.65,10.65,0,0,0,.68,3.73H20.54a3.5,3.5,0,1,0,0,7h20.8a3.5,3.5,0,0,0,0-7H38.18a3.73,3.73,0,0,1-3.73-3.73V76C34.45,70.73,36.94,68.19,40.11,65Z"/><path class="cls-2" d="M69.41,42.3A25.23,25.23,0,0,0,57.8,45.14,3.5,3.5,0,0,0,61,51.35a18.18,18.18,0,0,1,25.21,9.28A3.5,3.5,0,0,0,92.72,58,25.07,25.07,0,0,0,69.41,42.3Z"/></g></g></svg>
