<svg xmlns="http://www.w3.org/2000/svg" viewBox="0 0 120 120"><defs><style>.cls-1{fill:none;}.cls-2{fill:#333;}</style></defs><title>se_dressingroom</title><g id="Layer_2" data-name="Layer 2"><g id="icons-open_converted_333333_120x120" data-name="icons-open converted_333333_120x120"><rect class="cls-1" width="120" height="120"/><path class="cls-2" d="M118.44,38.09,61.94.58a3.5,3.5,0,0,0-3.87,0L1.56,38.09a3.5,3.5,0,0,0,3.87,5.83L60,7.7l53,35.18V113H83c-.24-3.19-.45-7.25-.62-12.13-.21-6-.32-11.9-.38-15.51h8a3.5,3.5,0,0,0,3.5-3.5V65.22a3.5,3.5,0,0,0-2.75-3.42L73.07,57.92a3.5,3.5,0,0,0-3.78,1.65,10.27,10.27,0,0,1-5.54,4.51V57.23A10.37,10.37,0,1,0,55,38.5a3.5,3.5,0,1,0,3.51,6.05,3.33,3.33,0,0,1,1.69-.45,3.37,3.37,0,1,1,0,6.73,3.5,3.5,0,0,0-3.5,3.5v9.61a10.28,10.28,0,0,1-5.15-4.38,3.5,3.5,0,0,0-3.78-1.65L30.21,61.8a3.5,3.5,0,0,0-2.75,3.42V81.86a3.5,3.5,0,0,0,3.5,3.5h8.29A173.31,173.31,0,0,1,39.19,113H3.54a3.5,3.5,0,1,0,0,7H42.33a3.5,3.5,0,0,0,3.47-3.06c2.11-16.58.23-34.69.15-35.45a3.5,3.5,0,0,0-3.48-3.13h-8V68l12.59-2.77a17.23,17.23,0,0,0,26.8,0L86.44,68V78.36h-8a3.5,3.5,0,0,0-3.5,3.53c0,.09.08,9.58.42,19.23.24,6.81.55,12.11.93,15.74A3.5,3.5,0,0,0,79.77,120H116.5a3.5,3.5,0,0,0,3.5-3.5V41A3.5,3.5,0,0,0,118.44,38.09Z"/></g></g></svg>
