<svg xmlns="http://www.w3.org/2000/svg" viewBox="0 0 120 120"><defs><style>.cls-1{fill:none;}.cls-2{fill:#333;}</style></defs><title>se_ceiling_fan_1</title><g id="Layer_2" data-name="Layer 2"><g id="icons-open_converted_333333_120x120" data-name="icons-open converted_333333_120x120"><rect class="cls-1" width="120" height="120"/><path class="cls-2" d="M84.89,120C71.45,120,55.26,112.85,50,99.54H35a3.5,3.5,0,0,1-2.08-.69l-1.31-1a15.11,15.11,0,1,1-14.81-18.1h.5l.46-.57L6.14,71.16A3.5,3.5,0,0,1,4.72,67.5l2.12-9.22a3.48,3.48,0,0,1,3.45-2.72c.79,0,19.38.28,32.31,5.67,3,.8,5.73,3.49,5.2,7.29C47.21,72.74,46,75.38,44.72,77l1.58,2.23c1.7.28,3.81.59,5.16.7a27.65,27.65,0,0,0,4.23-8.42A58,58,0,0,0,55.22,63l-3.06.23a3.49,3.49,0,0,1-3.22-1.61l-1.48-2.33a3.5,3.5,0,0,1,1.29-5l4.71-2.54L53.18,47a3.5,3.5,0,0,1,5.36-3.17c.33.21,8.19,5.21,16.67,15.94,5.82,7.36,7.88,13.42,8.6,16.89A15.11,15.11,0,1,1,65.89,91.52c0-.35,0-.7,0-1a3.5,3.5,0,1,1,7,.45c0,.2,0,.39,0,.59A8.11,8.11,0,1,0,81,83.42a3.66,3.66,0,0,1-2.44-.85l-.13-.11a3.5,3.5,0,0,1-1.21-2.64s-.27-6.56-7.48-15.69a79.66,79.66,0,0,0-9.17-9.8,3.5,3.5,0,0,1-1.07,2c2.63,1.66,3.2,7,3.2,15.27,0,2.71-2.51,7.51-3,8.45C57.11,84.87,54.82,87,52.28,87a69.86,69.86,0,0,1-8.62-1.09,3.5,3.5,0,0,1-2.23-1.42l-4.36-6.14a3.5,3.5,0,0,1,2-5.41c.39-.36,1.26-1.73,1.75-4.93h0a3.51,3.51,0,0,1-.65-.2C31.21,64,18.57,63,13,62.67l-.94,4.09L24.85,75.6a3.5,3.5,0,0,1,.73,5.07l-4,5a3.5,3.5,0,0,1-3.24,1.27,9.54,9.54,0,0,0-1.53-.14,8.09,8.09,0,1,0,7.52,5.07,3.5,3.5,0,0,1,5.33-4.12l6.5,4.8H52.5a3.5,3.5,0,0,1,3.38,2.58C58.94,106.31,73,113,84.89,113a26.43,26.43,0,0,0,26.4-26.4c0-7.62-2.3-13.76-7.69-20.53A166.29,166.29,0,0,0,89.53,51a3.5,3.5,0,0,1,.65-5.59c3.07-1.76,8.49-5.11,10-6.59a4.87,4.87,0,0,0,1.51-3.07c0-.06,0-.13,0-.19v-10h-1.9a3.5,3.5,0,0,1-3.5-3.5V8.73c0-.07,0-.14,0-.2a2.35,2.35,0,0,0-.36-1.29,1.24,1.24,0,0,0-.74-.15c-.8,0-1,.92-1,1.68V22.05a3.5,3.5,0,0,1-3.5,3.5H81.2a3.5,3.5,0,0,1-3.5-3.5V8.82c0-.27-.17-1.82-1.05-1.82s-1,1.58-1.05,1.81V22.05a3.5,3.5,0,0,1-3.5,3.5H70.2v10c0,1.37.34,3.28,3,6,1.37,1.37,5.43,2.43,7.73,2.71a3.5,3.5,0,0,1-.85,6.95C78.75,51,71.81,50,68.27,46.46s-5.07-7-5.07-10.91V22.05a3.5,3.5,0,0,1,3.5-3.5h1.9V8.73s0-.08,0-.11C68.71,5.15,70.94,0,76.65,0s7.94,5.15,8.05,8.62c0,0,0,.08,0,.11v9.83h2.45V8.73a9.61,9.61,0,0,1,2.53-6.47A7.55,7.55,0,0,1,95.16.08,7.74,7.74,0,0,1,101,2.43a9.12,9.12,0,0,1,2.25,6.37v9.75h1.9a3.5,3.5,0,0,1,3.5,3.5V35.5a11.68,11.68,0,0,1-3.55,8.26,49.72,49.72,0,0,1-7.47,5.34,157.3,157.3,0,0,1,11.44,12.61c6.37,8,9.22,15.68,9.22,24.89A33.44,33.44,0,0,1,84.89,120ZM39.67,72.84h0Zm0,0h0Zm0,0h0Zm16-1.21h0Z"/></g></g></svg>
