<svg xmlns="http://www.w3.org/2000/svg" viewBox="0 0 120 120"><defs><style>.cls-1{fill:none;}.cls-2{fill:#333;}</style></defs><title>se_waterheater_electric</title><g id="Layer_2" data-name="Layer 2"><g id="icons-open_converted_333333_120x120" data-name="icons-open converted_333333_120x120"><rect class="cls-1" width="120" height="120"/><path class="cls-2" d="M53.28,103.91A159.74,159.74,0,0,1,15,98.17a3.5,3.5,0,1,0-2,6.72,164.09,164.09,0,0,0,36.64,5.87v5.74a3.5,3.5,0,0,0,7,0v-9a3.5,3.5,0,0,0-3.38-3.58Z"/><path class="cls-2" d="M107,6.14C93.17,2.12,76.93,0,60,0,54.83,0,49.67.2,44.64.6A3.49,3.49,0,0,0,44,.72c-.1,0-.2.08-.3.12a3.41,3.41,0,0,0-.34.14,3.5,3.5,0,0,0-.56.36l0,0h0a3.51,3.51,0,0,0-.5.48c-.07.09-.13.18-.19.27s-.14.18-.2.29a3.47,3.47,0,0,0-.14.32c0,.1-.09.2-.13.3a3.47,3.47,0,0,0-.08.37c0,.1-.05.19-.06.29a3.52,3.52,0,0,0,0,.69h0a3.49,3.49,0,0,0,.12.67c0,.1.07.19.11.28a3.48,3.48,0,0,0,.14.36,3.52,3.52,0,0,0,.27.42c0,.05.06.11.1.15L55.42,23l-8,4.34A3.5,3.5,0,0,0,45.91,32l6.14,12.2L33.37,30.29l5.78-4.77a3.5,3.5,0,0,0-.47-5.73L15.75,6.47l-.19-.08-.35-.16-.32-.1-.34-.08L14.2,6,14,6h-.12l-.36,0-.33.05-.31.1-.33.12-.29.16L12,6.65a3.47,3.47,0,0,0-.27.22c-.08.07-.17.14-.24.22s-.14.17-.21.25a3.54,3.54,0,0,0-.22.3L11,7.74c0,.06-.05.12-.08.18a2.86,2.86,0,0,0-.26.67c0,.11-.06.22-.08.33a3.52,3.52,0,0,0,0,.38c0,.07,0,.13,0,.2V86.44a3.5,3.5,0,0,0,.72,2.13c2.37,3.09,6.56,4.94,11.2,4.94a15.35,15.35,0,0,0,8.43-2.38,15.34,15.34,0,0,0,8.42,2.38,15.35,15.35,0,0,0,8.43-2.38,16.1,16.1,0,0,0,16.85,0A15.34,15.34,0,0,0,73,93.51a3.5,3.5,0,0,0,0-7c-2.92,0-4.87-1.19-5.65-2.2a3.5,3.5,0,0,0-2.78-1.37h0a3.5,3.5,0,0,0-2.78,1.37c-.78,1-2.73,2.2-5.65,2.2s-4.87-1.19-5.65-2.2a3.5,3.5,0,0,0-2.78-1.37h0a3.5,3.5,0,0,0-2.77,1.37,7.18,7.18,0,0,1-5.65,2.2c-2.92,0-4.87-1.18-5.65-2.2a3.5,3.5,0,0,0-2.78-1.37h0a3.5,3.5,0,0,0-2.78,1.37c-.78,1-2.73,2.2-5.65,2.2A8,8,0,0,1,17.49,85V15.58l13.32,7.74-5.35,4.41a3.5,3.5,0,0,0,.14,5.51L59.75,58.66A3.5,3.5,0,0,0,65,54.27L53.7,31.89l8.73-4.71a3.5,3.5,0,0,0,1.08-5.25L51.82,7.18C54.53,7.06,57.27,7,60,7a167.14,167.14,0,0,1,42.51,5.15V67.54A8,8,0,0,1,97.58,69c-2.92,0-4.87-1.19-5.65-2.2a3.5,3.5,0,0,0-5.55,0c-.78,1-2.73,2.2-5.65,2.2s-4.87-1.19-5.65-2.2a3.5,3.5,0,0,0-2.78-1.37h0a3.5,3.5,0,0,0-2.78,1.37c-.78,1-2.73,2.2-5.65,2.2s-4.87-1.19-5.65-2.2a3.5,3.5,0,0,0-2.78-1.37h0a3.5,3.5,0,0,0-2.78,1.37C51.9,67.85,50,69,47,69s-4.87-1.18-5.65-2.2a3.5,3.5,0,0,0-2.78-1.37h0a3.5,3.5,0,0,0-2.78,1.37c-.78,1-2.73,2.2-5.65,2.2a3.5,3.5,0,0,0,0,7,15.35,15.35,0,0,0,8.43-2.38,16.1,16.1,0,0,0,16.85,0,16.09,16.09,0,0,0,16.85,0,16.09,16.09,0,0,0,16.85,0A15.34,15.34,0,0,0,97.58,76a16.47,16.47,0,0,0,4.93-.74V98.87a163,163,0,0,1-35.79,5,3.51,3.51,0,0,0-3.38,3.51v9.08a3.5,3.5,0,0,0,7,0v-5.74A164.13,164.13,0,0,0,107,104.89a3.5,3.5,0,0,0,2.52-3.36V9.5A3.5,3.5,0,0,0,107,6.14Z"/></g></g></svg>
