<svg xmlns="http://www.w3.org/2000/svg" viewBox="0 0 120 120"><defs><style>.cls-1{fill:none;}.cls-2{fill:#333;}</style></defs><title>se_electrical_heating</title><g id="Layer_2" data-name="Layer 2"><g id="icons-open_converted_333333_120x120" data-name="icons-open converted_333333_120x120"><rect class="cls-1" width="120" height="120"/><path class="cls-2" d="M116.5,113H3.5a3.5,3.5,0,1,0,0,7h113a3.5,3.5,0,0,0,0-7Z"/><path class="cls-2" d="M60,96.41a3.5,3.5,0,1,0,6.29,3.07c12.86-26.4,4-42.07-3.83-55.89C56,32.13,50.4,22.24,57.38,7.1A3.5,3.5,0,1,0,51,4.17C42.54,22.57,49.58,35,56.38,47,64,60.55,71.25,73.32,60,96.41Z"/><path class="cls-2" d="M90.77,96.41a3.5,3.5,0,1,0,6.29,3.07c12.87-26.4,4-42.07-3.83-55.89C86.75,32.13,81.16,22.24,88.13,7.1a3.5,3.5,0,1,0-6.36-2.93C73.3,22.57,80.34,35,87.14,47,94.79,60.55,102,73.32,90.77,96.41Z"/><path class="cls-2" d="M29.24,96.41a3.5,3.5,0,1,0,6.29,3.07c12.86-26.4,4-42.07-3.78-55.89-6.46-11.45-12-21.34-5.07-36.48a3.5,3.5,0,0,0-6.36-2.93C11.86,22.56,18.87,35,25.66,47,33.29,60.54,40.49,73.32,29.24,96.41Z"/></g></g></svg>
