<svg xmlns="http://www.w3.org/2000/svg" viewBox="0 0 122.07 120"><defs><style>.cls-1{fill:none;}.cls-2{fill:#333;}</style></defs><title>se_electrical_vehicle</title><g id="Layer_2" data-name="Layer 2"><g id="icons-open_converted_333333_120x120" data-name="icons-open converted_333333_120x120"><rect class="cls-1" x="1.04" width="120" height="120"/><path class="cls-2" d="M88.67,120a33.48,33.48,0,0,1-31.4-22l-29.94,0A14.44,14.44,0,0,1,.14,91.45,81.75,81.75,0,0,1,2.16,68C6.07,52.34,15,43.22,27.89,41.63a3.5,3.5,0,0,1,3.93,3.53c0,.11-.17,11.13-.17,18.77a.74.74,0,0,0,.26.66c1.25,1.17,5,1.45,6.68,1.34H66.4c-12.87-8.46-28.29-7.66-28.48-7.66a3.46,3.46,0,0,1-2.61-.95,3.5,3.5,0,0,1-1.1-2.55v-9.2a3.5,3.5,0,0,1,3.5-3.5c30,0,40.43,9.89,47.35,16.43,2.44,2.31,4.37,4.13,6.43,4.78A22,22,0,0,1,106.7,82.22a88.56,88.56,0,0,1-.18,14.3A3.53,3.53,0,0,1,103,99.63l-8.55-.09a14.33,14.33,0,0,1-26.07-8.23,3.5,3.5,0,0,1,7,0,7.36,7.36,0,0,0,7.35,7.35,7.47,7.47,0,0,0,6.67-4.24,3.5,3.5,0,0,1,3.11-1.9h0l7.24.08a83.87,83.87,0,0,0-.07-9.89A15.08,15.08,0,0,0,89.38,70c-3.59-1.13-6.28-3.67-9.13-6.37-6.2-5.86-14.58-13.78-39-14.47v2.15c7.58.27,25,2.42,37.27,15.79a3.5,3.5,0,0,1-2.58,5.86h-37c-1.58.09-8.11.24-11.8-3.22a7.71,7.71,0,0,1-2.48-5.77c0-4.65.06-10.54.11-14.49C17,51.9,11.7,58.7,8.95,69.69A75.56,75.56,0,0,0,7.13,91c0,.08,0,.21,0,.3a7.43,7.43,0,0,0,14.51,2.22A3.5,3.5,0,0,1,25,91.07L59.83,91h0a3.5,3.5,0,0,1,3.38,2.58,26.4,26.4,0,0,0,51.86-7c0-7.62-2.3-13.76-7.69-20.53A166.91,166.91,0,0,0,93.32,51,3.5,3.5,0,0,1,94,45.4c3.07-1.76,8.49-5.11,10-6.59a4.81,4.81,0,0,0,1.51-3.15V35.6s0,0,0-.05v-10h-1.9a3.5,3.5,0,0,1-3.5-3.5V8.73c0-.07,0-.14,0-.2a2.35,2.35,0,0,0-.36-1.29,1.25,1.25,0,0,0-.74-.15c-.8,0-1,.92-1,1.68V22.05a3.5,3.5,0,0,1-3.5,3.5H85a3.5,3.5,0,0,1-3.5-3.5V8.82c0-.26-.17-1.82-1.05-1.82s-1,1.49-1.05,1.83V22.05a3.5,3.5,0,0,1-3.5,3.5H74v10c0,1.37.34,3.28,3,6,1.37,1.37,5.43,2.43,7.73,2.71a3.5,3.5,0,0,1-.85,6.95C82.53,51,75.59,50,72.05,46.46S67,39.48,67,35.55V22.05a3.5,3.5,0,0,1,3.5-3.5h1.9V8.73s0-.08,0-.11C72.49,5.15,74.73,0,80.43,0s7.94,5.15,8.05,8.62c0,0,0,.08,0,.11v9.83h2.45V8.73a9.61,9.61,0,0,1,2.53-6.47A7.55,7.55,0,0,1,98.94.08a7.74,7.74,0,0,1,5.84,2.35A9.12,9.12,0,0,1,107,8.81v9.75h1.9a3.5,3.5,0,0,1,3.5,3.5V35.5a11.69,11.69,0,0,1-3.56,8.26,49.71,49.71,0,0,1-7.47,5.34,157.61,157.61,0,0,1,11.44,12.61c6.37,8,9.21,15.68,9.21,24.89A33.44,33.44,0,0,1,88.67,120Z"/></g></g></svg>
