<svg xmlns="http://www.w3.org/2000/svg" viewBox="0 0 120 120"><defs><style>.cls-1{fill:none;}.cls-2{fill:#333;}</style></defs><title>se_Engine</title><g id="Layer_2" data-name="Layer 2"><g id="icons-open_converted_333333_120x120" data-name="icons-open converted_333333_120x120"><rect class="cls-1" width="120" height="120"/><path class="cls-2" d="M63.76,5.66V3.75a3.76,3.76,0,0,0-7.52,0V5.66a57.23,57.23,0,1,0,7.52,0ZM60,112.48a49.71,49.71,0,1,1,49.72-49.72A49.77,49.77,0,0,1,60,112.48Z"/><path class="cls-2" d="M56.11,70.4l-4.6-18.27v19.8a3.6,3.6,0,0,1-.73,2.47,2.69,2.69,0,0,1-3.86,0,3.55,3.55,0,0,1-.74-2.48V49.23a2.84,2.84,0,0,1,1-2.53A4.64,4.64,0,0,1,49.78,46h1.8a6.87,6.87,0,0,1,2.36.29A2,2,0,0,1,55,47.39a16.37,16.37,0,0,1,.8,2.48L60,65.59l4.17-15.71a16.41,16.41,0,0,1,.8-2.48,2,2,0,0,1,1.08-1.06A6.88,6.88,0,0,1,68.41,46h1.8a4.63,4.63,0,0,1,2.64.66,2.83,2.83,0,0,1,1,2.53v22.7a3.62,3.62,0,0,1-.73,2.47,2.52,2.52,0,0,1-2,.82,2.45,2.45,0,0,1-1.9-.82,3.58,3.58,0,0,1-.74-2.47V52.13L63.89,70.4c-.3,1.19-.54,2.06-.73,2.61a3.6,3.6,0,0,1-1.05,1.52,3,3,0,0,1-2.11.68,3.06,3.06,0,0,1-2.82-1.57,6.28,6.28,0,0,1-.62-1.51C56.42,71.58,56.26,71,56.11,70.4Z"/></g></g></svg>
