<svg xmlns="http://www.w3.org/2000/svg" viewBox="0 0 120 120"><defs><style>.cls-1{fill:none;}.cls-2{fill:#333;}</style></defs><title>se_fire_alarm</title><g id="Layer_2" data-name="Layer 2"><g id="icons-open_converted_333333_120x120" data-name="icons-open converted_333333_120x120"><rect class="cls-1" width="120" height="120"/><path class="cls-2" d="M24.94,36.27a3.32,3.32,0,0,0,2.3,6.23C40.25,37.7,49,24.69,47.6,12.21A3.32,3.32,0,1,0,41,13C42.07,22.48,35.17,32.5,24.94,36.27Z"/><path class="cls-2" d="M29.73,49a3.32,3.32,0,0,0,1.15,6.44A3.26,3.26,0,0,0,32,55.24c14.9-5.51,30.08-24,28.91-42.84a3.39,3.39,0,0,0-3.52-3.11,3.32,3.32,0,0,0-3.11,3.52C55.28,28.42,42.14,44.42,29.73,49Z"/><path class="cls-2" d="M113.21,57.4a3.33,3.33,0,0,0-6.38,1.19,12.29,12.29,0,0,1-3.26,6.93C101.74,60,99.46,48.8,98,39a3.32,3.32,0,0,0-5.88-1.57c-.41.51-9.21,11.67-10.66,25.06A15.11,15.11,0,0,1,76,60a3.32,3.32,0,0,0-5.63,1.85c-.23,1.5-4.84,33.4,11.81,51.49H6.69V6.64h8.8l-.3,2.87A3.32,3.32,0,0,0,18,13.14l10,1.55L21,24.65l-2.81-2.13a3.32,3.32,0,0,0-4,5.29L19.75,32a3.32,3.32,0,0,0,4.73-.75L36.43,14.12a3.32,3.32,0,0,0-2.22-5.18L22.12,7.07l.35-3.4A3.32,3.32,0,0,0,19.17,0H3.36A3.32,3.32,0,0,0,0,3.32V116.68A3.32,3.32,0,0,0,3.36,120h87.2a3.32,3.32,0,0,0,3.32-3.32c0-.12-.06-.21-.06-.32a3.26,3.26,0,0,0-.46-2C87.82,105.73,90.95,95.2,93.1,90a11.84,11.84,0,0,1,4.52,8.3,3.32,3.32,0,0,0,6.63-.45C103.5,87,93.52,82.38,93.1,82.19a3.32,3.32,0,0,0-4.24,1.35c-.32.55-5.61,9.87-5.24,20.66C76.16,92.26,76,75.92,76.49,67.82A33.9,33.9,0,0,0,84,69.89a3.33,3.33,0,0,0,3.86-3.33c-.1-6.71,2.48-13.23,5-17.93,1.6,8.79,4.15,20.45,6.88,24.11v0l0,0c.07.09.14.19.2.27a3.38,3.38,0,0,0,.37.28,3.25,3.25,0,0,0,.53.4,2.91,2.91,0,0,0,.55.22,3.33,3.33,0,0,0,.66.18,5.51,5.51,0,0,0,1.29-.11c.11,0,.21-.09.31-.13a3.19,3.19,0,0,0,.66-.28,22.28,22.28,0,0,0,5.57-5.37c3.19,11,6.8,30.22-2.66,41.22a3.32,3.32,0,0,0,5,4.33C128.64,94.79,113.85,58.91,113.21,57.4Z"/></g></g></svg>
