<svg xmlns="http://www.w3.org/2000/svg" viewBox="0 0 120 120"><defs><style>.cls-1{fill:none;}.cls-2{fill:#333;}</style></defs><title>se_floor_heater</title><g id="Layer_2" data-name="Layer 2"><g id="icons-open_converted_333333_120x120" data-name="icons-open converted_333333_120x120"><rect class="cls-1" width="120" height="120"/><rect class="cls-1" width="120" height="120"/><path class="cls-2" d="M116.48,120H3.52A3.5,3.5,0,0,1,0,116.5V102.77a3.5,3.5,0,0,1,3.5-3.5h99.23a3.5,3.5,0,0,1,0,7H7V113H113V42.89L60,7.7,5.46,43.92a3.5,3.5,0,0,1-3.87-5.83L58.06.58a3.5,3.5,0,0,1,3.87,0l56.48,37.51A3.5,3.5,0,0,1,120,41V116.5A3.5,3.5,0,0,1,116.48,120Z"/><path class="cls-2" d="M60.1,92.53a3.5,3.5,0,0,1-3.27-4.76c2.6-6.76,1.31-11.26-.17-16.48-1.67-5.85-3.56-12.48.17-22.19a3.5,3.5,0,1,1,6.53,2.51c-2.89,7.52-1.54,12.27,0,17.76s3.41,12,0,20.91A3.5,3.5,0,0,1,60.1,92.53Z"/><path class="cls-2" d="M73.83,92.53a3.5,3.5,0,0,1-3.27-4.76c2.6-6.76,1.31-11.26-.17-16.48-1.67-5.85-3.56-12.48.17-22.19a3.5,3.5,0,1,1,6.53,2.51c-2.89,7.52-1.54,12.27,0,17.76s3.41,12,0,20.91A3.5,3.5,0,0,1,73.83,92.53Z"/><path class="cls-2" d="M46.37,92.53a3.5,3.5,0,0,1-3.27-4.76c2.6-6.76,1.31-11.26-.17-16.48-1.67-5.85-3.56-12.48.17-22.19a3.5,3.5,0,1,1,6.53,2.51c-2.89,7.52-1.54,12.27,0,17.76s3.41,12,0,20.91A3.5,3.5,0,0,1,46.37,92.53Z"/></g></g></svg>
