<svg xmlns="http://www.w3.org/2000/svg" viewBox="0 0 120 120"><defs><style>.cls-1{fill:none;opacity:0.5;}.cls-2{fill:#333;}</style></defs><title>se_garage_door</title><g id="Layer_2" data-name="Layer 2"><g id="icons-open_converted_333333_120x120" data-name="icons-open converted_333333_120x120"><rect class="cls-1" width="120" height="120"/><path class="cls-2" d="M69,94a4.3,4.3,0,1,0-4.29-4.3A4.28,4.28,0,0,0,69,94Z"/><path class="cls-2" d="M56.31,93.13a3.43,3.43,0,0,0,0-6.86H40.49a3.43,3.43,0,0,0,0,6.86Z"/><path class="cls-2" d="M81.7,83.94a3.44,3.44,0,0,0-2.77,4,8.88,8.88,0,0,1,.17,1.78V100H76.19a3.43,3.43,0,0,0-3.44,3.42v2.79a4.26,4.26,0,1,1-8.53,0l0-2.79A3.41,3.41,0,0,0,60.76,100H37.06a3.44,3.44,0,0,0-3.44,3.42v2.79a4.27,4.27,0,0,1-.94,2.68,3.43,3.43,0,1,0,5.34,4.3,11.33,11.33,0,0,0,2.45-6.33H57.39a11.12,11.12,0,0,0,22.2,0h2.94a3.42,3.42,0,0,0,3.41-3.43V89.7a18,18,0,0,0-.25-3,3.44,3.44,0,0,0-4-2.77Z"/><path class="cls-2" d="M116.59,0H3.5a3.43,3.43,0,1,0,0,6.87H113.16V113.14H99V51.34a3.42,3.42,0,0,0-3.44-3.43H24.33a3.44,3.44,0,0,0-3.44,3.43v61.8H3.44a3.43,3.43,0,1,0,0,6.86H24.33a3.42,3.42,0,0,0,3.43-3.43V80.19H92.16v36.38A3.44,3.44,0,0,0,95.6,120h21a3.42,3.42,0,0,0,3.41-3.43V3.44A3.42,3.42,0,0,0,116.59,0ZM92.16,54.77v5.85H27.75V54.77ZM27.75,73.33V67.47H92.16v5.85Z"/></g></g></svg>
