<svg xmlns="http://www.w3.org/2000/svg" viewBox="0 0 120 120"><defs><style>.cls-1{fill:#333;}.cls-2{fill:none;}</style></defs><title>se_gas_heating</title><g id="Layer_2" data-name="Layer 2"><g id="icons-open_converted_333333_120x120" data-name="icons-open converted_333333_120x120"><path class="cls-1" d="M116.5,98.79a3.5,3.5,0,0,0,3.5-3.5V11.5A11.51,11.51,0,0,0,108.5,0h-97A11.51,11.51,0,0,0,0,11.5v97A11.51,11.51,0,0,0,11.5,120H43l.21,0,.21,0a3.5,3.5,0,0,0,3.5-3.5v-7.3a.5.5,0,0,1,.5-.5h6.24l.25,0a3.46,3.46,0,0,0,1.54-.61,3.5,3.5,0,0,0,.8-4.84C51.81,94.1,52.89,82,55.82,74.54c1.35-3.45,2.9-5.55,4.18-6.61,1.28,1.06,2.82,3.16,4.18,6.61,2.94,7.48,4,19.56-.43,28.65a3.48,3.48,0,0,0,2.47,5.48h0l.36,0h6a.5.5,0,0,1,.5.5v7.3a3.5,3.5,0,0,0,3.5,3.5l.21,0,.21,0h31.5A11.51,11.51,0,0,0,120,108.5a3.5,3.5,0,0,0-7,0,4.5,4.5,0,0,1-4.5,4.5H80.08v-3.8A7.5,7.5,0,0,0,73,101.72c9.9-17.65,9.33-38.64,5.08-53.31C74.46,36,68.19,26.93,61.3,24.18a3.5,3.5,0,0,0-2.59,0C51.81,26.93,45.54,36,41.95,48.41,37.7,63.08,37.13,84.07,47,101.72a7.5,7.5,0,0,0-7.11,7.48V113H11.5A4.5,4.5,0,0,1,7,108.5v-97A4.5,4.5,0,0,1,11.5,7h97a4.5,4.5,0,0,1,4.5,4.5V95.29A3.5,3.5,0,0,0,116.5,98.79ZM48.67,50.36c2.65-9.15,7-16.36,11.33-19,4.34,2.66,8.68,9.88,11.33,19A69.19,69.19,0,0,1,73,80.59,44.06,44.06,0,0,0,70.69,72C68.36,66,65,62,61.2,60.63a3.49,3.49,0,0,0-2.4,0C55,62,51.64,66,49.31,72A44.06,44.06,0,0,0,47,80.59,69.19,69.19,0,0,1,48.67,50.36Z"/><rect class="cls-2" width="120" height="120"/></g></g></svg>
