<svg xmlns="http://www.w3.org/2000/svg" viewBox="0 0 120 120"><defs><style>.cls-1{fill:none;}.cls-2{fill:#333;}</style></defs><title>se_gate</title><g id="Layer_2" data-name="Layer 2"><g id="icons-open_converted_333333_120x120" data-name="icons-open converted_333333_120x120"><rect class="cls-1" width="120" height="120"/><path class="cls-2" d="M45.32,16.91a3.76,3.76,0,0,0-3.68-.12L7.51,34.59V18.26a3.75,3.75,0,1,0-7.51,0v83a3.75,3.75,0,1,0,7.51,0V97.68l35.06,7.73a3.75,3.75,0,0,0,4.56-3.67V20.12A3.75,3.75,0,0,0,45.32,16.91Zm-5.7,80.16L7.51,90V43.05L39.62,26.31Z"/><path class="cls-2" d="M116.25,14.5a3.75,3.75,0,0,0-3.75,3.75v83a3.75,3.75,0,1,0,7.51,0v-83A3.75,3.75,0,0,0,116.25,14.5Z"/><circle class="cls-2" cx="89.33" cy="72.16" r="4.32"/><path class="cls-2" d="M60.65,75.91H76.54a3.75,3.75,0,1,0,0-7.51H60.65a3.75,3.75,0,1,0,0,7.51Z"/><path class="cls-2" d="M97.05,55.65c-1-3-3.46-8.49-8-12.11C87.14,42,82.94,39.86,68,40A62.33,62.33,0,0,0,54.3,41.28,3.75,3.75,0,1,0,56,48.57a56.36,56.36,0,0,1,11.95-1h.34c13.54-.15,16,1.77,16,1.84A16.78,16.78,0,0,1,88.61,55H55.48a3.75,3.75,0,0,0,0,7.51H93.79c2.87,2,5.33,6.37,5.33,9.69v10H96.51a3.75,3.75,0,0,0-3.75,3.75v2.81a4,4,0,1,1-8,0v-2.8A3.75,3.75,0,0,0,81,82.16H57.19a3.75,3.75,0,0,0-3.75,3.75v2.81a3.93,3.93,0,0,1-.88,2.49,3.75,3.75,0,1,0,5.85,4.7,11.54,11.54,0,0,0,2.49-6.25H77.32a11.49,11.49,0,0,0,22.91,0h2.65a3.75,3.75,0,0,0,3.75-3.75V72.16C106.63,66,102.44,58.82,97.05,55.65Z"/></g></g></svg>
