<svg xmlns="http://www.w3.org/2000/svg" viewBox="0 0 120 120"><defs><style>.cls-1{fill:none;}.cls-2{fill:#333;}</style></defs><title>se_hifi</title><g id="Layer_2" data-name="Layer 2"><g id="icons-open_converted_333333_120x120" data-name="icons-open converted_333333_120x120"><rect class="cls-1" width="120" height="120"/><path class="cls-2" d="M38.07,43a3.53,3.53,0,0,0-3.53,3.53V56.9H21.69V46.57a3.53,3.53,0,1,0-7.06,0V74.13a3.53,3.53,0,1,0,7.06,0V64H34.54V83.12h-16A11.5,11.5,0,0,1,7.06,71.64V48.36A11.49,11.49,0,0,1,18.54,36.88H58a3.53,3.53,0,1,0,0-7.06H18.54A18.56,18.56,0,0,0,0,48.36V71.64A18.56,18.56,0,0,0,18.54,90.18H37.71a3.63,3.63,0,0,0,.94-.14,3.52,3.52,0,0,0,2.95-3.47v-40A3.53,3.53,0,0,0,38.07,43Z"/><path class="cls-2" d="M47.49,46.57v.51a3.53,3.53,0,0,0,7.06,0v-.51a3.53,3.53,0,1,0-7.06,0Z"/><path class="cls-2" d="M54.55,74.13V57.38a3.53,3.53,0,0,0-7.06,0V74.13a3.53,3.53,0,1,0,7.06,0Z"/><path class="cls-2" d="M101.85,50.61a3.53,3.53,0,0,0,3.53-3.53v-.51a3.53,3.53,0,1,0-7.06,0v.51A3.53,3.53,0,0,0,101.85,50.61Z"/><path class="cls-2" d="M98.31,74.13a3.53,3.53,0,1,0,7.06,0V57.38a3.53,3.53,0,0,0-7.06,0Z"/><path class="cls-2" d="M101.47,29.82H72.32a4,4,0,0,0-3.7,3.8V74.13a3.53,3.53,0,1,0,7.06,0V59H89A3.53,3.53,0,0,0,89,52H75.68V36.88h25.78a11.49,11.49,0,0,1,11.48,11.48V71.64a11.49,11.49,0,0,1-11.48,11.48H52.21a3.53,3.53,0,1,0,0,7.06h49.26A18.56,18.56,0,0,0,120,71.64V48.36A18.56,18.56,0,0,0,101.47,29.82Z"/></g></g></svg>
