<svg xmlns="http://www.w3.org/2000/svg" viewBox="0 0 120 120"><defs><style>.cls-1{fill:none;opacity:0.5;}.cls-2{fill:#333;}</style></defs><title>se_home_cinema</title><g id="Layer_2" data-name="Layer 2"><g id="icons-open_converted_333333_120x120" data-name="icons-open converted_333333_120x120"><rect class="cls-1" width="120" height="120"/><path class="cls-2" d="M110.89,76.52h-9.42a3.42,3.42,0,1,1,0-6.84h9.42a2.26,2.26,0,0,0,2.24-2.28V9.12a2.25,2.25,0,0,0-2.24-2.25H9.12A2.25,2.25,0,0,0,6.87,9.12V67.4a2.26,2.26,0,0,0,2.24,2.28H21.59a3.42,3.42,0,1,1,0,6.84H9.12A9.13,9.13,0,0,1,0,67.4V9.12A9.13,9.13,0,0,1,9.12,0H110.89A9.13,9.13,0,0,1,120,9.12V67.4a9.13,9.13,0,0,1-9.11,9.12Z"/><path class="cls-2" d="M92.49,120a3.4,3.4,0,0,1-2.41-1,3.35,3.35,0,0,1-.91-1.56L85,102.23H75.92l-4.21,15.18A3.42,3.42,0,0,1,68.39,120H55.92a3.4,3.4,0,0,1-3.41-3.41V96.94a2.29,2.29,0,0,0-2.28-2.28H32.86a2.26,2.26,0,0,0-2.24,2.28v19.64a3.42,3.42,0,0,1-1,2.42,3.53,3.53,0,0,1-2.44,1H3.44a3.42,3.42,0,1,1,0-6.85H23.75V96.94a9.12,9.12,0,0,1,9.12-9.11H50.24a9.12,9.12,0,0,1,9.11,9.11v16.2h6.43L70,97.88a3.42,3.42,0,0,1,3.3-2.53h14.3a3.43,3.43,0,0,1,3.3,2.53l4.21,15.26h21.48a3.42,3.42,0,1,1,0,6.85Z"/><path class="cls-2" d="M41.62,81A12.91,12.91,0,1,1,54.53,68.12,12.92,12.92,0,0,1,41.62,81Zm0-18.94a6,6,0,1,0,6.07,6,6,6,0,0,0-6.07-6Z"/><path class="cls-2" d="M80.79,88.54A12.9,12.9,0,1,1,93.71,75.63,12.92,12.92,0,0,1,80.79,88.54Zm0-18.95a6.05,6.05,0,1,0,6.07,6,6.05,6.05,0,0,0-6.07-6Z"/></g></g></svg>
