<svg xmlns="http://www.w3.org/2000/svg" viewBox="0 0 120 120"><defs><style>.cls-1{fill:none;}.cls-2{fill:#333;}</style></defs><title>se_horn</title><g id="Layer_2" data-name="Layer 2"><g id="icons-open_converted_333333_120x120" data-name="icons-open converted_333333_120x120"><rect class="cls-1" width="120" height="120"/><path class="cls-2" d="M69.95,36.52,35.12,46.26V37.79a3.5,3.5,0,0,0-3.5-3.5H17.56a3.5,3.5,0,1,0,0,7H28.12v9.59s0,.08,0,.12a5,5,0,0,0,.1.72s0,.07,0,.11.05.12.07.19a3.48,3.48,0,0,0,.14.36c0,.1.1.19.15.28s.12.2.19.29.14.18.22.26l.23.24.27.22.27.19.3.16.3.13.35.11.3.07.4,0,.19,0h.11l.37,0,.35-.06.11,0,33.28-9.31L57.91,73.32l-25.49-5.9h0c-.11,0-.23,0-.35,0a3.55,3.55,0,0,0-.36,0h0l-.26,0a3.5,3.5,0,0,0-.4,0,3.4,3.4,0,0,0-.33.09l-.31.1a3.46,3.46,0,0,0-.33.17l-.27.14a3.5,3.5,0,0,0-.28.22c-.08.07-.17.13-.25.2s-.15.17-.23.25-.15.17-.21.26a3.37,3.37,0,0,0-.18.3c-.05.1-.11.19-.16.29a3.55,3.55,0,0,0-.13.38c0,.08-.06.16-.08.24s0,0,0,0a12.72,12.72,0,0,0-.08.71s0,0,0,0v7.88H7V37.79a3.5,3.5,0,0,0-7,0V82.21a3.5,3.5,0,0,0,3.5,3.5H31.62a3.5,3.5,0,0,0,3.5-3.5v-7L59.59,80.9a3.5,3.5,0,0,0,4.16-2.47l10.52-37.6a3.5,3.5,0,0,0-4.31-4.31Z"/><path class="cls-2" d="M110.14,27.84a3.5,3.5,0,1,0-5.74,4A48.92,48.92,0,0,1,113,60a48.92,48.92,0,0,1-8.6,28.15,3.5,3.5,0,0,0,5.74,4A55.89,55.89,0,0,0,120,60,55.89,55.89,0,0,0,110.14,27.84Z"/><path class="cls-2" d="M97.18,37.29a3.5,3.5,0,1,0-5.61,4.19,31.28,31.28,0,0,1,0,37,3.5,3.5,0,0,0,5.61,4.19,38.28,38.28,0,0,0,0-45.42Z"/><path class="cls-2" d="M78.39,47.91a3.5,3.5,0,0,0-.3,4.94,10.5,10.5,0,0,1,0,14.3,3.5,3.5,0,1,0,5.24,4.64,17.5,17.5,0,0,0,0-23.59A3.5,3.5,0,0,0,78.39,47.91Z"/></g></g></svg>
