<svg xmlns="http://www.w3.org/2000/svg" viewBox="0 0 120 120.31"><defs><style>.cls-1{fill:none;}.cls-2{fill:#333;}</style></defs><title>se_lightning_protection</title><g id="Layer_2" data-name="Layer 2"><g id="icons-open_converted_333333_120x120" data-name="icons-open converted_333333_120x120"><rect class="cls-1" y="0.31" width="120" height="120"/><path class="cls-2" d="M113.5,120H6.5A6.51,6.51,0,0,1,0,113.5V6.5A6.51,6.51,0,0,1,6.5,0H43a3.5,3.5,0,0,1,0,7H7V113H113V7H77a3.5,3.5,0,0,1,0-7h36.5A6.51,6.51,0,0,1,120,6.5v107A6.51,6.51,0,0,1,113.5,120Zm0-113h0Z"/><path class="cls-2" d="M36.86,102.71a3.5,3.5,0,0,1-3.09-5.13l13.95-26.4-8.87,2.35a3.5,3.5,0,0,1-3.56-5.65l7.32-8.6H34.84A14.32,14.32,0,0,1,32,30.91a14.91,14.91,0,0,1,21.76-9.47A33,33,0,0,1,70,17.29c15.68,0,29.43,12.7,29.43,27.18a17.92,17.92,0,0,1-7.61,14.44,3.49,3.49,0,0,1-2,.63H75.08a3.5,3.5,0,0,1-3.5-3.67l-7.74,2.65A3.5,3.5,0,0,1,59.44,54L62,47.44l-2.25,2.4A3.5,3.5,0,0,1,54.61,45L69.17,29.54A3.5,3.5,0,0,1,75,33.2l-6.3,16.27L78.94,46a3.5,3.5,0,0,1,3.95,5.39L82,52.55h6.66a11,11,0,0,0,3.81-8.07C92.48,33.72,82,24.29,70,24.29a26,26,0,0,0-14.39,4.22,3.5,3.5,0,0,1-4.17-.19,7.79,7.79,0,0,0-5-1.77,7.88,7.88,0,0,0-7.89,7.54,3.5,3.5,0,0,1-1.44,2.68l-.27.2a3.5,3.5,0,0,1-2.06.67,7.32,7.32,0,0,0,0,14.63H50.18A3.5,3.5,0,0,1,52.84,58l-5,5.86,5.79-1.53a3.5,3.5,0,0,1,4,5L53,76.13,63.66,64.36a3.5,3.5,0,0,1,5.19,4.7L39.46,101.55A3.49,3.49,0,0,1,36.86,102.71Z"/></g></g></svg>
