<svg xmlns="http://www.w3.org/2000/svg" viewBox="0 0 120 120"><defs><style>.cls-1{fill:#333;}.cls-2{fill:none;}</style></defs><title>de_lighting_on</title><g id="Layer_2" data-name="Layer 2"><g id="icons-open_converted_333333_120x120" data-name="icons-open converted_333333_120x120"><path class="cls-1" d="M60.24,24.15a26.46,26.46,0,0,0-20,43.71,3.47,3.47,0,0,0,.32.33c4.24,3.8,5.13,4.59,5.16,9.65a3.5,3.5,0,0,0,3.5,3.47h0a3.5,3.5,0,0,0,3.47-3.53c-.06-7.72-2.42-10.26-7.32-14.66a19.44,19.44,0,1,1,34.3-12.55,19.25,19.25,0,0,1-5.76,13.8c-4.48,4.57-7,11.1-7,18.4v.64H53.32A7.41,7.41,0,0,0,48,85.17c-1.24,1.08-2.71,3.15-2.71,6.92a7.66,7.66,0,0,0,8.62,8.24H66.53c.7.14.78,1.6.78,2.24A2,2,0,0,1,67,103.8a1.43,1.43,0,0,1-.88.24l-.36,0h-15a3.5,3.5,0,0,0-3.45,2.93c-.1.63-.92,6.27,2.26,10a8.84,8.84,0,0,0,7.05,3c2.15,0,3.73,0,4.7-.05,3.49-.12,4.31-1.93,4.39-3.42a3.56,3.56,0,0,0-3.39-3.72A3.5,3.5,0,0,0,61,113c-.67,0-1.94,0-4.29,0-1.23,0-1.58-.4-1.71-.56a3.26,3.26,0,0,1-.61-1.43H65.69a8.57,8.57,0,0,0,6-2,8.27,8.27,0,0,0,2.58-6.43c0-3.83-1.45-6-2.66-7.17a7.59,7.59,0,0,0-5.26-2.08H53.67a1.52,1.52,0,0,0-.44,0,1.5,1.5,0,0,1-.78-.13,2.08,2.08,0,0,1-.2-1.14c0-1.29.3-1.63.3-1.63a.54.54,0,0,1,.19,0,1.34,1.34,0,0,0,.41,0H70.47a3.5,3.5,0,0,0,3.5-3.5V82.79c0-5.38,1.8-10.3,4.91-13.46a26.17,26.17,0,0,0,7.8-18.74A26.46,26.46,0,0,0,60.24,24.15Z"/><rect class="cls-1" x="55.48" width="7" height="18.07" rx="3.5" ry="3.5"/><path class="cls-1" d="M94.91,13.74a3.5,3.5,0,0,0-5,0l-7.83,7.82a3.5,3.5,0,0,0,4.95,5l7.83-7.82A3.5,3.5,0,0,0,94.91,13.74Z"/><path class="cls-1" d="M106.52,46.24H95.44a3.5,3.5,0,0,0,0,7h11.07a3.5,3.5,0,0,0,0-7Z"/><path class="cls-1" d="M37,28.12a3.5,3.5,0,0,0,0-4.95l-7.82-7.83a3.5,3.5,0,0,0-5,4.95l7.82,7.83a3.5,3.5,0,0,0,4.95,0Z"/><path class="cls-1" d="M24.56,46.39H13.49a3.5,3.5,0,0,0,0,7H24.56a3.5,3.5,0,0,0,0-7Z"/><rect class="cls-2" width="120" height="120"/></g></g></svg>
