<svg xmlns="http://www.w3.org/2000/svg" viewBox="0 0 120 120"><defs><style>.cls-1{fill:none;}.cls-2{fill:#333;}</style></defs><title>se_microwaves</title><g id="Layer_2" data-name="Layer 2"><g id="icons-open_converted_333333_120x120" data-name="icons-open converted_333333_120x120"><rect class="cls-1" width="120" height="120"/><circle class="cls-2" cx="102.81" cy="41.7" r="3.42"/><circle class="cls-2" cx="102.81" cy="55.39" r="3.42"/><circle class="cls-2" cx="102.81" cy="28" r="3.42"/><path class="cls-2" d="M54.19,44.34a3.5,3.5,0,0,0-4.45,2.17c-2.2,6.38-1.1,10.7-.12,14.5.83,3.22,1.48,5.76.12,9.68A3.5,3.5,0,1,0,56.35,73c2-5.9,1-10,0-13.7-.87-3.4-1.56-6.09,0-10.48A3.5,3.5,0,0,0,54.19,44.34Z"/><path class="cls-2" d="M40.47,44.34A3.5,3.5,0,0,0,36,46.5c-2.2,6.38-1.1,10.7-.12,14.5.83,3.22,1.48,5.76.12,9.68A3.5,3.5,0,1,0,42.64,73c2-5.9,1-10,0-13.7-.87-3.4-1.56-6.08,0-10.48A3.5,3.5,0,0,0,40.47,44.34Z"/><path class="cls-2" d="M67.9,44.45a3.5,3.5,0,0,0-4.45,2.17c-2.2,6.38-1.1,10.7-.12,14.5.83,3.22,1.48,5.76.12,9.68a3.5,3.5,0,1,0,6.62,2.29c2-5.9,1-10,0-13.7-.87-3.4-1.56-6.09,0-10.48A3.5,3.5,0,0,0,67.9,44.45Z"/><path class="cls-2" d="M116.34,87.75h0a3.5,3.5,0,0,0,3.5-3.49L120,22.16a11.27,11.27,0,0,0-11.25-11.25H11.42A11.27,11.27,0,0,0,.17,22.16L0,97.84a11.27,11.27,0,0,0,11.25,11.25h97.32a11.27,11.27,0,0,0,11.25-11.25,3.5,3.5,0,0,0-7,0,4.26,4.26,0,0,1-4.25,4.25H11.25A4.26,4.26,0,0,1,7,97.84l.17-75.68a4.26,4.26,0,0,1,4.25-4.25h97.33A4.26,4.26,0,0,1,113,22.15l-.15,62.08A3.5,3.5,0,0,0,116.34,87.75Z"/><path class="cls-2" d="M13.35,91.58a3.5,3.5,0,0,0,3.5,3.5H89.13a3.5,3.5,0,0,0,3.5-3.5V28a3.5,3.5,0,0,0-3.5-3.5H16.85a3.5,3.5,0,0,0-3.5,3.5V77.9a3.5,3.5,0,0,0,7,0V31.5H85.63V88.08H16.85A3.5,3.5,0,0,0,13.35,91.58Z"/></g></g></svg>
