<svg xmlns="http://www.w3.org/2000/svg" viewBox="0 0 120 120"><defs><style>.cls-1{fill:none;}.cls-2{fill:#333;}</style></defs><title>se_module_ip2</title><g id="Layer_2" data-name="Layer 2"><g id="icons-open_converted_333333_120x120" data-name="icons-open converted_333333_120x120"><rect class="cls-1" width="120" height="120"/><path class="cls-2" d="M113.5,120H6.5A6.51,6.51,0,0,1,0,113.5V6.5A6.51,6.51,0,0,1,6.5,0H43a3.5,3.5,0,0,1,0,7H7V113H113V7H77a3.5,3.5,0,0,1,0-7h36.5A6.51,6.51,0,0,1,120,6.5v107A6.51,6.51,0,0,1,113.5,120Zm0-113h0Z"/><path class="cls-2" d="M76,17.53a3.33,3.33,0,0,0-4.62.13l-12,12.26a3.33,3.33,0,0,0,.08,4.75A37.78,37.78,0,0,1,69.77,60.07a37.62,37.62,0,0,1-8.22,22.87l-7.17-7.26a25.79,25.79,0,0,0-2.28-34,3.33,3.33,0,0,0-4.61.09L35.68,53.52a7.1,7.1,0,0,0-2.15-.36,7.21,7.21,0,1,0,7.21,7.21,7.13,7.13,0,0,0-.36-2.13l9.21-9.18a19.07,19.07,0,0,1-2,24.31,3.33,3.33,0,0,0-.13,4.8l11.85,12a3.34,3.34,0,0,0,4.66.08A44,44,0,0,0,76.44,60.07,44.3,44.3,0,0,0,66.31,32.36l7.41-7.55C78,29.76,87,42.3,87,60c0,23-15.28,37.34-15.5,37.54A3.33,3.33,0,0,0,76,102.47a59.85,59.85,0,0,0,0-84.93Z"/></g></g></svg>
