<svg xmlns="http://www.w3.org/2000/svg" viewBox="0 0 120 120"><defs><style>.cls-1{fill:none;}.cls-2{fill:#333;}</style></defs><title>se_outdoor_lighting</title><g id="Layer_2" data-name="Layer 2"><g id="icons-open_converted_333333_120x120" data-name="icons-open converted_333333_120x120"><rect class="cls-1" width="120" height="120"/><path class="cls-2" d="M99.9,45.19H109a3.45,3.45,0,1,0,0-6.91H99.9a3.45,3.45,0,1,0,0,6.91Z"/><path class="cls-2" d="M66.29,71.83V81a3.46,3.46,0,0,0,6.91,0V71.83a3.46,3.46,0,0,0-6.91,0Z"/><path class="cls-2" d="M93,60.09A3.46,3.46,0,0,0,88.13,65l6.46,6.45a3.46,3.46,0,0,0,4.89-4.88Z"/><path class="cls-2" d="M116.54,104H35.48v-62H51.6a3.43,3.43,0,0,0,.2,1.64l7.9,19.64a3.46,3.46,0,0,0,2.52,2.1,3.56,3.56,0,0,0,.69.07,3.46,3.46,0,0,0,2.44-1l13.53-13.5A3.45,3.45,0,1,0,74,46l-9.83,9.8-5.1-12.68,12.06-12,12.63,5.06-.81.81a3.45,3.45,0,1,0,4.89,4.88l4.52-4.51a3.45,3.45,0,0,0-1.15-5.65L71.59,23.81a3.45,3.45,0,0,0-3.74.76L57.38,35H35.48V21.64a3.45,3.45,0,0,0-1.6-2.91L5.32.54A3.46,3.46,0,1,0,1.6,6.36l27,17.18v83.88A3.45,3.45,0,0,0,32,110.87h81.06v5.67a3.46,3.46,0,0,0,6.91,0v-9.12A3.46,3.46,0,0,0,116.54,104Z"/></g></g></svg>
