<svg xmlns="http://www.w3.org/2000/svg" viewBox="0 0 120 120"><defs><style>.cls-1{fill:none;}.cls-2{fill:#333;}</style></defs><title>se_oven</title><g id="Layer_2" data-name="Layer 2"><g id="icons-open_converted_333333_120x120" data-name="icons-open converted_333333_120x120"><rect class="cls-1" width="120" height="120"/><circle class="cls-2" cx="75.37" cy="17.2" r="3.42"/><circle class="cls-2" cx="89.07" cy="17.2" r="3.42"/><circle class="cls-2" cx="102.76" cy="17.2" r="3.42"/><circle class="cls-2" cx="17.23" cy="17.2" r="3.42"/><path class="cls-2" d="M13.7,102.8a3.5,3.5,0,0,0,3.5,3.5h85.57a3.5,3.5,0,0,0,3.5-3.5V44.59a3.5,3.5,0,0,0-3.5-3.5H17.2a3.5,3.5,0,0,0-3.5,3.5V89.21a3.5,3.5,0,0,0,7,0V48.09H99.26V99.3H17.2A3.5,3.5,0,0,0,13.7,102.8Z"/><path class="cls-2" d="M116.5,98.55A3.5,3.5,0,0,0,120,95V11.27A11.28,11.28,0,0,0,108.73,0H11.27A11.28,11.28,0,0,0,0,11.27v97.47A11.28,11.28,0,0,0,11.27,120h97.47A11.28,11.28,0,0,0,120,108.73a3.5,3.5,0,0,0-7,0,4.27,4.27,0,0,1-4.27,4.27H11.27A4.27,4.27,0,0,1,7,108.73V11.27A4.27,4.27,0,0,1,11.27,7h97.47A4.27,4.27,0,0,1,113,11.27V95A3.5,3.5,0,0,0,116.5,98.55Z"/><path class="cls-2" d="M102.76,27.39H17.24a3.5,3.5,0,0,0,0,7h85.53a3.5,3.5,0,0,0,0-7Z"/><path class="cls-2" d="M61.24,58a3.5,3.5,0,0,0-4.45,2.17c-2.2,6.38-1.1,10.7-.12,14.5.83,3.22,1.48,5.76.12,9.68a3.5,3.5,0,1,0,6.62,2.29c2-5.9,1-10,0-13.7-.87-3.4-1.56-6.09,0-10.48A3.5,3.5,0,0,0,61.24,58Z"/><path class="cls-2" d="M47.53,58a3.5,3.5,0,0,0-4.45,2.17c-2.2,6.38-1.1,10.7-.12,14.5.83,3.22,1.48,5.76.12,9.68a3.5,3.5,0,1,0,6.62,2.29c2-5.9,1-10,0-13.7-.87-3.4-1.56-6.08,0-10.48A3.5,3.5,0,0,0,47.53,58Z"/><path class="cls-2" d="M75,58.08a3.5,3.5,0,0,0-4.45,2.17c-2.2,6.38-1.1,10.7-.12,14.5.83,3.22,1.48,5.76.12,9.68a3.5,3.5,0,1,0,6.62,2.29c2-5.9,1-10,0-13.7-.87-3.4-1.56-6.09,0-10.48A3.5,3.5,0,0,0,75,58.08Z"/></g></g></svg>
