<svg xmlns="http://www.w3.org/2000/svg" viewBox="0 0 120 120"><defs><style>.cls-1{fill:#333;}.cls-2{fill:none;}</style></defs><title>se_pc</title><g id="Layer_2" data-name="Layer 2"><g id="icons-open_converted_333333_120x120" data-name="icons-open converted_333333_120x120"><path class="cls-1" d="M120,43.77V23.84a3.5,3.5,0,0,0-2.13-3.22L82.49,5.53a3.51,3.51,0,0,0-2.55-.08l-5.86,2.1a3.49,3.49,0,0,0-1-.8L61.42.42A3.51,3.51,0,0,0,58.55.21L2.3,20.74A3.5,3.5,0,0,0,0,24.08L1,80.94a3.5,3.5,0,0,0,1.31,2.67L8.8,88.85a3.5,3.5,0,0,0,3.65.45L35.16,78.9a3.5,3.5,0,0,0-2.92-6.36L11.5,82,7.93,79.18,7,26.46,59.47,7.33l8.43,4.57-.71,45.37-8.61,3.86A3.5,3.5,0,0,0,57,62.45L49.42,74.54a3.5,3.5,0,0,0,1.19,4.88L72.94,92.56,33.58,112.36,19.3,100.92l25-11.58A3.5,3.5,0,0,0,41.41,83L11.24,96.94a3.5,3.5,0,0,0-.72,5.91L31,119.23a3.5,3.5,0,0,0,3.76.4l47.11-23.7a3.5,3.5,0,0,0,.2-6.14L57.27,75.22l5.13-8.15,9.68-4.33a3.5,3.5,0,0,0,2.07-3.14l.7-44.89L81,12.5l32,13.65V41.52L99,48a3.5,3.5,0,0,0-2,3.35l.56,11.36a3.5,3.5,0,0,0,5,3l10.41-5.09-.32,22.69L93.19,93.34l-.38-54.28,15.43-6.47a3.5,3.5,0,0,0-2.71-6.46l-16.1,6.75-7.37-4.49a3.5,3.5,0,0,0-3.64,6l7.38,4.5.42,60.24a3.5,3.5,0,0,0,5.12,3.08l26.34-13.7a3.5,3.5,0,0,0,1.88-3.06L120,55a3.5,3.5,0,0,0-5-3.19L104.2,57,104,53.33,118,47A3.5,3.5,0,0,0,120,43.77Z"/><rect class="cls-2" width="120" height="120"/></g></g></svg>
