<svg xmlns="http://www.w3.org/2000/svg" viewBox="0 0 120 120"><defs><style>.cls-1{fill:none;opacity:0.5;}.cls-2{fill:#333;}</style></defs><title>se_printer2</title><g id="Layer_2" data-name="Layer 2"><g id="icons-open_converted_333333_120x120" data-name="icons-open converted_333333_120x120"><rect class="cls-1" width="120" height="120"/><path class="cls-2" d="M119.59,53.85C110.39,37.91,98.38,35.07,97.85,35a2.84,2.84,0,0,0-.63-.07H87.43V21.43c0-.12,0-.25-.05-.37v0a1.82,1.82,0,0,0-.11-.39s0,0,0-.07a1.4,1.4,0,0,0-.14-.34s0,0,0,0-.14-.23-.19-.34-.06,0-.06-.07a2.15,2.15,0,0,0-.28-.3h0L68,.88A3,3,0,0,0,62.78,3V21.64a3,3,0,0,0,3,3H81.41v20.7H38.6V6H54.19a3,3,0,1,0,0-6H35.58a3,3,0,0,0-3,3V34.89h-10a2.92,2.92,0,0,0-.58.06C21.51,35,9.62,37.53.4,53.5A3,3,0,0,0,0,55V97.42a3,3,0,0,0,3,3H6.52v3.76a3,3,0,0,0,6,0V97.42a3,3,0,0,0-3-3H6V61.87h94.65a3,3,0,1,0,0-6H6C13.13,44,21.43,41.33,22.94,40.93h9.61v4.43H29.77a3,3,0,1,0,0,6.05H90.22a3,3,0,1,0,0-6.05H87.43V40.93h9.37c1.68.49,10.08,3.45,17.13,15.25v38H110a3,3,0,0,0-3,3v3.95H96.17L92.48,90.38V80.94a3,3,0,0,0-3-3H29.77a3,3,0,1,0,0,6H86.44v6.92a4,4,0,0,0,.14,1L94.16,114H24.89l6.56-16.8A3,3,0,0,0,25.81,95l-8.16,20.93A3,3,0,0,0,20.47,120H98.38a3,3,0,0,0,2.86-4l-3-8.79H110a3,3,0,0,0,3-3v-4H117a3,3,0,0,0,3-3V55.36a2.92,2.92,0,0,0-.41-1.51ZM68.84,18.61V10.32l8.26,8.29Z"/></g></g></svg>
