<svg xmlns="http://www.w3.org/2000/svg" viewBox="0 0 120 120"><defs><style>.cls-1{fill:none;}.cls-2{fill:#333;}</style></defs><title>se_module_ip2_1</title><g id="Layer_2" data-name="Layer 2"><g id="icons-open_converted_333333_120x120" data-name="icons-open converted_333333_120x120"><rect class="cls-1" width="120" height="120"/><path class="cls-2" d="M113.5,120H6.5A6.51,6.51,0,0,1,0,113.5V6.5A6.51,6.51,0,0,1,6.5,0H43a3.5,3.5,0,0,1,0,7H7V113H113V7H77a3.5,3.5,0,0,1,0-7h36.5A6.51,6.51,0,0,1,120,6.5v107A6.51,6.51,0,0,1,113.5,120Zm0-113h0Z"/><path class="cls-2" d="M61.53,36.4,76.41,49.5A3.33,3.33,0,0,0,81.94,47V37.31a3.33,3.33,0,0,0-6.67,0v2.31L63.73,29.46a3.33,3.33,0,0,0-4.4,0L36.13,49.85A3.33,3.33,0,0,0,35,52.35V82.69A3.33,3.33,0,0,0,38.33,86H81.42c17.44-.09,25.24-12.67,25.24-25.1,0-27.13-19.37-47.58-45-47.58C35,13.33,13.33,34.68,13.33,60.91c0,25.65,21.21,45.75,48.29,45.75a38.77,38.77,0,0,0,23-6.76A3.34,3.34,0,1,0,81,94.29C74.46,98.51,69.38,100,61.62,100,38.28,100,20,82.83,20,60.91,20,38.35,38.67,20,61.62,20,83.5,20,100,37.59,100,60.91c0,2.86-.79,16.33-15.25,18.21V58.47a3.33,3.33,0,1,0-6.67,0V79.35H41.67V53.86Z"/></g></g></svg>
