<svg xmlns="http://www.w3.org/2000/svg" viewBox="0 0 120 120"><defs><style>.cls-1{fill:none;}.cls-2{fill:#333;}</style></defs><title>se_refrigerator</title><g id="Layer_2" data-name="Layer 2"><g id="icons-open_converted_333333_120x120" data-name="icons-open converted_333333_120x120"><rect class="cls-1" width="120" height="120"/><path class="cls-2" d="M88.4,52V68a3.5,3.5,0,0,0,7,0V52a3.5,3.5,0,0,0-7,0Z"/><path class="cls-2" d="M74.17,60.62l6.15,3.13a3.5,3.5,0,1,0,3.18-6.24l-4.32-2.2L81.38,51a3.5,3.5,0,1,0-6.24-3.18L72,54,63.5,56.73V47.78l4.88-4.88A3.5,3.5,0,0,0,63.43,38L60,41.38,56.57,38a3.5,3.5,0,0,0-4.95,4.95l4.88,4.88v8.95L48,54l-3.13-6.15A3.5,3.5,0,1,0,38.62,51l2.2,4.32-4.32,2.2a3.5,3.5,0,1,0,3.18,6.24l6.15-3.13,8.51,2.77-5.26,7.24L42.26,71.7a3.5,3.5,0,0,0,.54,7,3.54,3.54,0,0,0,.55,0l4.79-.76.76,4.79a3.5,3.5,0,0,0,3.45,3,3.54,3.54,0,0,0,.55,0,3.5,3.5,0,0,0,2.91-4l-1.08-6.82L60,67.5l5.26,7.24-1.08,6.82a3.5,3.5,0,0,0,2.91,4,3.54,3.54,0,0,0,.55,0,3.5,3.5,0,0,0,3.45-3l.76-4.79,4.79.76a3.54,3.54,0,0,0,.55,0,3.5,3.5,0,0,0,.54-7l-6.82-1.08-5.26-7.24Z"/><path class="cls-2" d="M105.59,98.56a3.5,3.5,0,0,0,3.5-3.5V11.25A11.27,11.27,0,0,0,97.84,0H22.16A11.27,11.27,0,0,0,10.91,11.25v97.49A11.27,11.27,0,0,0,22.16,120H97.84a11.27,11.27,0,0,0,11.25-11.25,3.5,3.5,0,0,0-7,0A4.26,4.26,0,0,1,97.84,113H22.16a4.26,4.26,0,0,1-4.25-4.25V11.25A4.26,4.26,0,0,1,22.16,7H97.84a4.26,4.26,0,0,1,4.25,4.25V95.06A3.5,3.5,0,0,0,105.59,98.56Z"/></g></g></svg>
