<svg xmlns="http://www.w3.org/2000/svg" viewBox="0 0 120 120"><defs><style>.cls-1{fill:none;}.cls-2{fill:#333;}</style></defs><title>se_house_bathroom</title><g id="Layer_2" data-name="Layer 2"><g id="icons-open_converted_333333_120x120" data-name="icons-open converted_333333_120x120"><rect class="cls-1" width="120" height="120"/><circle class="cls-2" cx="65.06" cy="71.7" r="3.42"/><circle class="cls-2" cx="65.06" cy="85.39" r="3.42"/><circle class="cls-2" cx="85.6" cy="83.55" r="3.42" transform="translate(-30.3 53.95) rotate(-29.98)"/><circle class="cls-2" cx="44.52" cy="83.55" r="3.42" transform="translate(-50.1 80.32) rotate(-59.99)"/><circle class="cls-2" cx="78.75" cy="71.69" r="3.42" transform="translate(-25.29 48.94) rotate(-29.98)"/><circle class="cls-2" cx="51.37" cy="71.69" r="3.42" transform="translate(-36.41 80.32) rotate(-59.99)"/><path class="cls-2" d="M118.42,38.09,61.93.58a3.5,3.5,0,0,0-3.87,0L1.58,38.09a3.5,3.5,0,1,0,3.87,5.83L60,7.7l53,35.18V113l-82.69,0V57.83a15.63,15.63,0,0,1,30.89-3.36H51.37a3.5,3.5,0,0,0,0,7H77.12a3.5,3.5,0,0,0,0-7H68.31a22.63,22.63,0,0,0-45,3.36V116.5a3.5,3.5,0,0,0,3.5,3.5h0l89.69,0a3.5,3.5,0,0,0,3.5-3.5V41A3.5,3.5,0,0,0,118.42,38.09Z"/></g></g></svg>
