<svg xmlns="http://www.w3.org/2000/svg" viewBox="0 0 120 120"><defs><style>.cls-1{fill:none;}.cls-2{fill:#333;}</style></defs><title>se_shutter</title><g id="Layer_2" data-name="Layer 2"><g id="icons-open_converted_333333_120x120" data-name="icons-open converted_333333_120x120"><rect class="cls-1" width="120" height="120"/><path class="cls-2" d="M102.85,0H17.15A17.17,17.17,0,0,0,0,17.15V63.87A11.57,11.57,0,0,0,11.56,75.43H81.15A11.57,11.57,0,0,0,92.71,63.87V17.15a10.15,10.15,0,1,1,20.29,0V113H3.5a3.5,3.5,0,0,0,0,7h113a3.5,3.5,0,0,0,3.5-3.5V17.15A17.17,17.17,0,0,0,102.85,0ZM85.71,20.69v6.68H7V20.69Zm0,13.68v6.68H7V34.38ZM7,48.06H85.71v6.69H7ZM17.15,7H89a17.07,17.07,0,0,0-3,6.69H7.62A10.15,10.15,0,0,1,17.15,7Zm64,61.42H11.56A4.56,4.56,0,0,1,7,63.87V61.75H85.71v2.13A4.56,4.56,0,0,1,81.15,68.43Z"/></g></g></svg>
