<svg xmlns="http://www.w3.org/2000/svg" viewBox="0 0 120 120"><defs><style>.cls-1{fill:none;}.cls-2{fill:#333;}</style></defs><title>se_Sockets </title><g id="Layer_2" data-name="Layer 2"><g transform="rotate(179.8540802001953 60.00069808959961,60.00000762939452)"><g id="icons-open_converted_333333_120x120" data-name="icons-open converted_333333_120x120"><rect class="cls-1" width="120" height="120"/><path d="m59.74,0a59.94,59.94 0 0 0 -59.74,60c0,33.17 25.85,59.52 58.86,60l0.05,0a3.55,3.55 0 0 0 2.53,-1.05a3.17,3.17 0 0 0 0.34,-0.4l0.09,-0.11a3.56,3.56 0 0 0 0.64,-2l0,-16.39a3.56,3.56 0 0 0 -0.82,-2.26l0,0a3.63,3.63 0 0 0 -0.39,-0.4l-0.17,-0.14l-0.37,-0.25l-0.33,-0.18l-0.24,-0.1a3.44,3.44 0 0 0 -0.49,-0.15l-0.12,0c-0.11,0 -0.21,-0.06 -0.33,-0.07a7.09,7.09 0 1 1 7.38,-4.58a3.58,3.58 0 1 0 6.72,2.5a14.25,14.25 0 1 0 -18,8.5l0,9.75a52.83,52.83 0 0 1 4.39,-105.49c29.77,0 53.09,23.2 53.09,52.82a52.33,52.33 0 0 1 -37.77,50.64a3.59,3.59 0 0 0 2,6.89a59.46,59.46 0 0 0 42.94,-57.53c0,-33.64 -26.47,-60 -60.26,-60" class="cls-2"/><path d="m17.83,57.87a14.25,14.25 0 1 0 14.24,-14.28a14.27,14.27 0 0 0 -14.24,14.28m21.33,0a7.08,7.08 0 1 1 -7.08,-7.1a7.09,7.09 0 0 1 7.08,7.1" class="cls-2"/><path d="m102.17,57.87a14.25,14.25 0 1 0 -14.24,14.27a14.27,14.27 0 0 0 14.24,-14.27m-21.33,0a7.08,7.08 0 1 1 7.09,7.13a7.1,7.1 0 0 1 -7.08,-7.09" class="cls-2"/></g></g></g></svg>
