<svg xmlns="http://www.w3.org/2000/svg" viewBox="0 0 120 120"><defs><style>.cls-1{fill:none;}.cls-2{fill:#333;}</style></defs><title>se_waterheater_solar</title><g id="Layer_2" data-name="Layer 2"><g id="icons-open_converted_333333_120x120" data-name="icons-open converted_333333_120x120"><rect class="cls-1" width="120" height="120"/><path class="cls-2" d="M62.86,22a3.51,3.51,0,0,0,.58,0l7-1.16a3.5,3.5,0,1,0-1.15-6.91l-7,1.16a3.5,3.5,0,0,0,.57,7Z"/><path class="cls-2" d="M57,35.93a3.5,3.5,0,0,0,1.65,4.67l6.41,3.06a3.5,3.5,0,0,0,3-6.31l-6.41-3.06A3.5,3.5,0,0,0,57,35.93Z"/><path class="cls-2" d="M50.58,61.13a3.5,3.5,0,0,0,3-5.22l-3.49-6.18A3.5,3.5,0,1,0,44,53.17l3.49,6.18A3.5,3.5,0,0,0,50.58,61.13Z"/><path class="cls-2" d="M28.68,51.93a3.5,3.5,0,0,0-3.82,3.14l-.69,7.07A3.5,3.5,0,0,0,27.31,66l.34,0a3.5,3.5,0,0,0,3.48-3.16l.69-7.07A3.5,3.5,0,0,0,28.68,51.93Z"/><path class="cls-2" d="M107,6.14C93.17,2.12,76.93,0,60,0A190.6,190.6,0,0,0,34.74,1.65a3.5,3.5,0,0,0-.23,6.9,15.45,15.45,0,1,1-17.3,21.21,3.5,3.5,0,0,0-6.72,1.38V86.44a3.5,3.5,0,0,0,.72,2.13c2.37,3.09,6.56,4.94,11.2,4.94a15.35,15.35,0,0,0,8.43-2.38,15.34,15.34,0,0,0,8.43,2.38,15.34,15.34,0,0,0,8.42-2.38,16.09,16.09,0,0,0,16.85,0A15.34,15.34,0,0,0,73,93.51a3.5,3.5,0,0,0,0-7c-2.92,0-4.87-1.19-5.65-2.2a3.5,3.5,0,0,0-2.78-1.37h0a3.5,3.5,0,0,0-2.78,1.37c-.78,1-2.73,2.2-5.65,2.2s-4.87-1.18-5.65-2.2a3.5,3.5,0,0,0-2.78-1.37h0a3.5,3.5,0,0,0-2.77,1.37,7.18,7.18,0,0,1-5.65,2.2c-2.92,0-4.87-1.18-5.65-2.2a3.5,3.5,0,0,0-2.78-1.37h0a3.5,3.5,0,0,0-2.78,1.37c-.78,1-2.73,2.2-5.65,2.2A8,8,0,0,1,17.49,85V41.3A22.45,22.45,0,0,0,46.91,7.45C51.22,7.15,55.59,7,60,7a167.12,167.12,0,0,1,42.51,5.15V67.54A8,8,0,0,1,97.58,69c-2.92,0-4.87-1.19-5.65-2.2a3.5,3.5,0,0,0-2.78-1.37h0a3.5,3.5,0,0,0-2.78,1.37c-.78,1-2.72,2.2-5.65,2.2s-4.87-1.18-5.65-2.2a3.5,3.5,0,0,0-2.78-1.37h0a3.5,3.5,0,0,0-2.78,1.37c-.78,1-2.73,2.2-5.65,2.2s-4.87-1.19-5.65-2.2a3.5,3.5,0,0,0-2.78-1.37h0a3.5,3.5,0,0,0-2.78,1.37C51.9,67.85,50,69,47,69a3.5,3.5,0,0,0,0,7,15.35,15.35,0,0,0,8.43-2.38,16.09,16.09,0,0,0,16.85,0,16.1,16.1,0,0,0,16.85,0A15.35,15.35,0,0,0,97.58,76a16.47,16.47,0,0,0,4.92-.74V98.87a163,163,0,0,1-35.79,5,3.51,3.51,0,0,0-3.38,3.51v9.08a3.5,3.5,0,1,0,7,0v-5.74A164.09,164.09,0,0,0,107,104.89a3.5,3.5,0,0,0,2.52-3.36V9.5A3.5,3.5,0,0,0,107,6.14Z"/><path class="cls-2" d="M53.28,103.91A159.79,159.79,0,0,1,15,98.17a3.5,3.5,0,1,0-2,6.72,164.1,164.1,0,0,0,36.64,5.87v5.74a3.5,3.5,0,0,0,7,0v-9a3.5,3.5,0,0,0-3.38-3.58Z"/></g></g></svg>
