<svg xmlns="http://www.w3.org/2000/svg" viewBox="0 0 120 120"><defs><style>.cls-1{fill:none;}.cls-2{fill:#333;}</style></defs><title>se_timer2</title><g id="Layer_2" data-name="Layer 2"><g id="icons-open_converted_333333_120x120" data-name="icons-open converted_333333_120x120"><rect class="cls-1" width="120" height="120"/><path class="cls-2" d="M113.5,120H6.5A6.51,6.51,0,0,1,0,113.5V6.5A6.51,6.51,0,0,1,6.5,0H43a3.5,3.5,0,0,1,0,7H7V113H113V7H77a3.5,3.5,0,0,1,0-7h36.5A6.51,6.51,0,0,1,120,6.5v107A6.51,6.51,0,0,1,113.5,120Zm0-113h0Z"/><path class="cls-2" d="M60,99.17a39.17,39.17,0,0,1-.35-78.34,3.52,3.52,0,0,1,2.66,1.08,3.74,3.74,0,0,1,1.11,2.65V52.1L73.6,41.92a3.74,3.74,0,0,1,5.28,5.29L62.32,63.76a3.74,3.74,0,0,1-6.38-2.64V28.56a31.69,31.69,0,1,0,17,2.48,3.74,3.74,0,1,1,3-6.82A39.17,39.17,0,0,1,60,99.17Z"/></g></g></svg>
