<svg xmlns="http://www.w3.org/2000/svg" viewBox="0 0 120 120"><defs><style>.cls-1{fill:none;}.cls-2{fill:#333;}</style></defs><title>se_towel_dryer2</title><g id="Layer_2" data-name="Layer 2"><g id="icons-open_converted_333333_120x120" data-name="icons-open converted_333333_120x120"><rect class="cls-1" width="120" height="120"/><path class="cls-2" d="M95.49,120h-.1l-53.6-1.48a3.5,3.5,0,0,1-3.17-4.75c2.57-6.72,5.16-38.38-6.81-64.72-.37.12-.67.28-.72.42-1.69,4.36-3.94,27.74-5.17,43.86l4.39-.15a3.5,3.5,0,1,1,.24,7l-8.29.29a3.54,3.54,0,0,1-2.64-1.07,3.5,3.5,0,0,1-1-2.68c.31-4.33,3.11-42.51,5.92-49.77,1.54-4,5.92-5.08,8.26-5.1.08,0,13.24-.29,26.48-.24,28.32.11,29.55,1.51,30.87,3,12.8,14.5,13.14,64,8.45,73.46A3.5,3.5,0,0,1,95.49,120Zm-49.12-8.36L93,112.93c1.1-4.75,1.89-15.6,1-29-1.11-16.08-4.31-28.75-8.61-34.18-4.26-1.08-25.36-1.36-46-1C49.15,72.38,48.69,99.42,46.37,111.64ZM85.75,49.86Z"/><path class="cls-2" d="M74.56,34.33a3.5,3.5,0,0,1-3.21-4.89c2.11-4.87,1.17-8.14.1-11.93-1.21-4.24-2.58-9,.45-15.5a3.5,3.5,0,0,1,6.34,3c-1.91,4.08-1.13,6.82-.06,10.61,1.2,4.21,2.69,9.46-.4,16.62A3.5,3.5,0,0,1,74.56,34.33Z"/><path class="cls-2" d="M59.72,34.33a3.5,3.5,0,0,1-3.21-4.89c2.11-4.87,1.17-8.14.1-11.93-1.21-4.24-2.58-9,.45-15.5a3.5,3.5,0,0,1,6.34,3c-1.91,4.08-1.13,6.82-.06,10.61,1.2,4.21,2.69,9.46-.4,16.62A3.5,3.5,0,0,1,59.72,34.33Z"/><path class="cls-2" d="M44.87,34.33a3.5,3.5,0,0,1-3.21-4.89c2.11-4.87,1.17-8.14.1-11.92-1.21-4.24-2.58-9,.45-15.5a3.5,3.5,0,1,1,6.34,3c-1.92,4.08-1.13,6.82-.06,10.61,1.2,4.21,2.69,9.46-.4,16.62A3.5,3.5,0,0,1,44.87,34.33Z"/></g></g></svg>
