<svg xmlns="http://www.w3.org/2000/svg" viewBox="0 0 120 120"><defs><style>.cls-1{fill:none;}.cls-2{fill:#333;}</style></defs><title>se_tumble_dryer</title><g id="Layer_2" data-name="Layer 2"><g id="icons-open_converted_333333_120x120" data-name="icons-open converted_333333_120x120"><rect class="cls-1" width="120" height="120"/><circle class="cls-2" cx="102.91" cy="17.09" r="3.42"/><circle class="cls-2" cx="89.21" cy="17.09" r="3.42"/><path class="cls-2" d="M116.5,98.65a3.5,3.5,0,0,0,3.5-3.5V11.27A11.28,11.28,0,0,0,108.73,0H11.27A11.28,11.28,0,0,0,0,11.27v97.47A11.28,11.28,0,0,0,11.27,120h97.47A11.28,11.28,0,0,0,120,108.73a3.5,3.5,0,0,0-7,0,4.27,4.27,0,0,1-4.27,4.27H11.27A4.27,4.27,0,0,1,7,108.73V11.27A4.27,4.27,0,0,1,11.27,7h97.47A4.27,4.27,0,0,1,113,11.27V95.15A3.5,3.5,0,0,0,116.5,98.65Z"/><path class="cls-2" d="M38.76,94.74c0,.06,0,.12,0,.18a3.53,3.53,0,0,0,.09.45c0,.07,0,.15,0,.22a3.51,3.51,0,0,0,.2.47s0,.1.06.14a3.44,3.44,0,0,0,.34.51l0,0a3.61,3.61,0,0,0,.28.28c.07.07.13.14.21.2l.21.14a3.44,3.44,0,0,0,.37.24l0,0A42.33,42.33,0,0,0,88.12,28.37a3.5,3.5,0,1,0-4.65,5.23A35.32,35.32,0,0,1,60,95.32a34.94,34.94,0,0,1-14.05-2.91c.77-9.37.33-13.79-.57-22.65L45.09,67a3.5,3.5,0,0,0-3.48-3.15H37.49V57.09h8.74c3,3,7.14,6,13.36,6s10.35-3,13.35-6h8.75v6.73H77.58A3.5,3.5,0,0,0,74.09,67l-.22,2.14c-.5,4.94-.86,8.52-1,12.19a3.5,3.5,0,0,0,7,.24c.11-3.19.42-6.42.85-10.71h4.45a3.5,3.5,0,0,0,3.5-3.5V53.59a3.5,3.5,0,0,0-3.5-3.5H71.46A3.5,3.5,0,0,0,68.9,51.2C65.66,54.68,63.05,56,59.59,56s-6.14-1.4-9.29-4.83a3.5,3.5,0,0,0-2.57-1.13H34a3.5,3.5,0,0,0-3.5,3.5V67.32a3.5,3.5,0,0,0,3.5,3.5h4.46c1,9.41,1.3,13.06.32,23.38,0,0,0,0,0,0A3.46,3.46,0,0,0,38.76,94.74Z"/><path class="cls-2" d="M24.68,60a35.27,35.27,0,0,1,12.6-27,3.5,3.5,0,1,0-4.51-5.36,42.32,42.32,0,0,0-4.4,60.52,3.5,3.5,0,0,0,5.23-4.65A35.27,35.27,0,0,1,24.68,60Z"/><path class="cls-2" d="M61.2,13.78a3.5,3.5,0,0,0-4.45,2.17c-2.21,6.38-1.1,10.7-.12,14.5.83,3.22,1.48,5.76.12,9.68a3.5,3.5,0,1,0,6.62,2.29c2-5.9,1-10,0-13.7-.87-3.4-1.56-6.09,0-10.48A3.5,3.5,0,0,0,61.2,13.78Z"/><path class="cls-2" d="M47.48,13.78A3.5,3.5,0,0,0,43,15.95c-2.2,6.38-1.1,10.7-.12,14.5.83,3.22,1.48,5.76.12,9.68a3.5,3.5,0,1,0,6.62,2.29c2-5.9,1-10,0-13.7-.87-3.4-1.56-6.08,0-10.48A3.5,3.5,0,0,0,47.48,13.78Z"/><path class="cls-2" d="M74.91,13.89a3.51,3.51,0,0,0-4.45,2.17c-2.2,6.38-1.1,10.7-.12,14.5.83,3.22,1.48,5.76.12,9.68a3.5,3.5,0,1,0,6.62,2.29c2-5.9,1-10,0-13.7-.87-3.4-1.56-6.09,0-10.48A3.5,3.5,0,0,0,74.91,13.89Z"/></g></g></svg>
