<svg xmlns="http://www.w3.org/2000/svg" viewBox="0 0 120 120"><defs><style>.cls-1{fill:none;}.cls-2{fill:#333;}</style></defs><title>se_tv</title><g id="Layer_2" data-name="Layer 2"><g id="icons-open_converted_333333_120x120" data-name="icons-open converted_333333_120x120"><rect class="cls-1" width="120" height="120"/><path class="cls-2" d="M101.32,107.92,91.17,111l-.93-2.12a9,9,0,0,0,2.9-10.31l-.11-.3a9,9,0,0,0-4.56-4.92,9,9,0,0,0-.38-5.06L88,88a8.94,8.94,0,0,0-4.72-5c-.21-.09-.42-.17-.63-.25a8.94,8.94,0,0,0-.27-5.57l-.11-.29a9,9,0,0,0-9.84-5.69L67.14,59.9l15.69-4.75,2.33,4.12a3.5,3.5,0,0,0,6.1-3.44l-3.71-6.57a3.5,3.5,0,0,0-4.06-1.63L61.26,54.37a3.5,3.5,0,0,0-2.16,4.82L66,74a9,9,0,0,0-2.59,10l.11.3a9,9,0,0,0,5.36,5.24,8.94,8.94,0,0,0,.25,5.57l.11.3a9,9,0,0,0,4.55,4.92,8.93,8.93,0,0,0,.39,5l.11.3a8.92,8.92,0,0,0,9.44,5.74L86,116.72a3.49,3.49,0,0,0,4.23,1.94l13.13-4a3.5,3.5,0,1,0-2.06-6.69ZM80.38,93.4l-2,.77A2,2,0,0,1,75.78,93l-.11-.3a2,2,0,0,1,1.16-2.58l2-.77a2,2,0,0,1,2.58,1.17l.11.29A2,2,0,0,1,80.38,93.4ZM74.65,78.3a2,2,0,0,1,1.05,1.12l.11.29a2,2,0,0,1-1.16,2.58l-2,.77a2,2,0,0,1-2.58-1.16l-.11-.3A2,2,0,0,1,71.1,79l2-.77a2,2,0,0,1,1.53,0Zm6.18,25-.11-.3a2,2,0,0,1,1.16-2.58l2-.77a2,2,0,0,1,2.58,1.16l.11.3a2,2,0,0,1-1.16,2.58l-2,.77A2,2,0,0,1,80.83,103.29Z"/><path class="cls-2" d="M118.1,104.11a21.14,21.14,0,0,1-7.64-7.35,123.18,123.18,0,0,1-6.33-14.63,3.5,3.5,0,0,0-1.58-1.87c-3.08-1.73-6.84-3.94-7.52-4.49l-.42-.36a25.24,25.24,0,0,1-2.95-2.75c.07-.31.13-.63.2-1s.18-.88.29-1.37c2.62.39,7.67,1.32,12.28,2.23l8.15,8.77a3.5,3.5,0,0,0,6.06-2.38V11.54c.07-1.11.15-5.5-3-8.28-1.55-1.37-4.4-2.77-9.18-1.66C99,3.32,26.36,19.18,22.29,20.07A12.73,12.73,0,0,0,11.5,29.9l-9,2.56A3.5,3.5,0,0,0,0,35.82V98.47a3.5,3.5,0,0,0,1.45,2.84l7.8,5.63.36,4.13a7.93,7.93,0,0,0,3.1,5.85A10.44,10.44,0,0,0,19,118.78a13.31,13.31,0,0,0,2.35-.2l.39-.1,42.61-13.3a3.5,3.5,0,0,0-2.09-6.68L19.86,111.73a5,5,0,0,1-2.93-.39c-.08-.06-.28-.21-.34-.88l-.5-5.73a3.5,3.5,0,0,0-1.44-2.53L7,96.68V38.46l4.11-1.18V92.91a3.5,3.5,0,0,0,7,0V33.46c0-5.52,4.29-6.35,5.11-6.45l.39-.06c.77-.17,76.72-16.76,84.41-18.53,1.42-.33,2.53-.29,3,.09a3.77,3.77,0,0,1,.67,2.55,3.47,3.47,0,0,0,0,.35V70L108.79,67a3.5,3.5,0,0,0-1.88-1c-14.85-3-16.33-2.8-16.9-2.74-3.65.41-4.46,4.46-5,7.14-.09.46-.22,1.09-.29,1.29-1.12,3.35,1.91,6.25,5.39,9.18l.37.31A77.58,77.58,0,0,0,98,85.73a119.36,119.36,0,0,0,6.36,14.45,28,28,0,0,0,10.55,10.16,3.5,3.5,0,1,0,3.2-6.22Z"/></g></g></svg>
