<svg xmlns="http://www.w3.org/2000/svg" viewBox="0 0 120 120"><defs><style>.cls-1{fill:none;}.cls-2{fill:#333;}</style></defs><title>se_video_projector</title><g id="Layer_2" data-name="Layer 2"><g id="icons-open_converted_333333_120x120" data-name="icons-open converted_333333_120x120"><rect class="cls-1" width="120" height="120"/><path class="cls-2" d="M117.48,36.53,64.28,21a3.48,3.48,0,0,0-2,0L2.52,38.53A3.5,3.5,0,0,0,0,41.89V64a3.5,3.5,0,0,0,1.81,3.07L12.55,73a3.48,3.48,0,0,0,1.3.44,3.52,3.52,0,0,0,3.83-2.6,3.7,3.7,0,0,0,.11-1.45V56l1.34.73V74.53A3.5,3.5,0,0,0,21,77.63l8.42,4.63v0A3.62,3.62,0,0,0,34.63,79V65.29L36,66V83.51c-.25,2.21,1.6,3.23,2.74,3.85L59.31,98.7a3.5,3.5,0,0,0,3.43,0L98,78.43a3.5,3.5,0,0,0,1.76-3V72.5c3.67-1.94,6.15-6.9,6.15-13,0-7.92-4.15-13.9-9.65-13.9s-9.65,6-9.65,13.9a20.51,20.51,0,0,0,.39,4,3.5,3.5,0,0,0,6.86-1.38,13.5,13.5,0,0,1-.25-2.65c0-4.45,2-6.9,2.65-6.9s2.65,2.45,2.65,6.9-2,6.9-2.65,6.9a3.5,3.5,0,0,0-3.5,3.5v3.49L61,91.62l-18-9.9V63.95a3.5,3.5,0,0,0-1.82-3.07l-8.34-4.57a3.5,3.5,0,0,0-5.18,3.07v13.9l-1.49-.82V54.64a3.5,3.5,0,0,0-1.82-3.07L16,47a3.5,3.5,0,0,0-5.18,3.07V64L7,61.93V44.51L63.3,28,113,42.51V63.74a3.5,3.5,0,0,0,7,0V39.89A3.5,3.5,0,0,0,117.48,36.53Z"/></g></g></svg>
