<svg xmlns="http://www.w3.org/2000/svg" viewBox="0 0 120 120"><defs><style>.cls-1{fill:none;}.cls-2{fill:#333;}</style></defs><title>se_vmc2</title><g id="Layer_2" data-name="Layer 2"><g id="icons-open_converted_333333_120x120" data-name="icons-open converted_333333_120x120"><rect class="cls-1" width="120" height="120"/><path class="cls-2" d="M116.67,120H3.33A3.32,3.32,0,0,1,0,116.67v-47a3.33,3.33,0,0,1,6.65,0v43.71H113.35V42.73L60,7.32,5.17,43.72a3.33,3.33,0,1,1-3.68-5.54L58.16.56a3.32,3.32,0,0,1,3.68,0l56.67,37.62A3.33,3.33,0,0,1,120,40.95v75.73A3.32,3.32,0,0,1,116.67,120Z"/><path class="cls-2" d="M21.6,91.89a3.32,3.32,0,0,1-3.33-3.33C18.28,57.39,43.9,32,75.4,32a3.33,3.33,0,1,1,0,6.65c-27.83,0-50.47,22.38-50.47,49.89A3.33,3.33,0,0,1,21.6,91.89Z"/><path class="cls-2" d="M35.47,91.89a3.33,3.33,0,0,1-3.33-3.33c0-23.61,19.4-42.82,43.25-42.82a3.33,3.33,0,1,1,0,6.65c-20.18,0-36.6,16.23-36.6,36.17A3.33,3.33,0,0,1,35.47,91.89Z"/></g></g></svg>
