<svg xmlns="http://www.w3.org/2000/svg" viewBox="0 0 120 120"><defs><style>.cls-1{fill:none;}.cls-2{fill:#333;}</style></defs><title>se_washing_machine</title><g id="Layer_2" data-name="Layer 2"><g id="icons-open_converted_333333_120x120" data-name="icons-open converted_333333_120x120"><rect class="cls-1" width="120" height="120"/><circle class="cls-2" cx="89.21" cy="17.09" r="3.42"/><circle class="cls-2" cx="102.91" cy="17.09" r="3.42"/><path class="cls-2" d="M108.73,120H11.27A11.28,11.28,0,0,1,0,108.73V11.27A11.28,11.28,0,0,1,11.27,0h97.47A11.28,11.28,0,0,1,120,11.27V95.15a3.5,3.5,0,0,1-7,0V11.27A4.27,4.27,0,0,0,108.73,7H11.27A4.27,4.27,0,0,0,7,11.27v97.47A4.27,4.27,0,0,0,11.27,113h97.47a4.27,4.27,0,0,0,4.27-4.27,3.5,3.5,0,0,1,7,0A11.28,11.28,0,0,1,108.73,120Z"/><path class="cls-2" d="M60,102.32A42.32,42.32,0,1,1,102.32,60,42.37,42.37,0,0,1,60,102.32Zm0-77.64A35.32,35.32,0,1,0,95.32,60,35.36,35.36,0,0,0,60,24.68Z"/><path class="cls-2" d="M75.8,74.17a15.32,15.32,0,0,1-8.41-2.38A15.31,15.31,0,0,1,59,74.17c-4.63,0-8.82-1.84-11.19-4.93A3.5,3.5,0,1,1,53.35,65c.78,1,2.72,2.19,5.63,2.19A7.15,7.15,0,0,0,64.61,65a3.5,3.5,0,0,1,5.55,0c.78,1,2.72,2.19,5.63,2.19A7.65,7.65,0,0,0,81,65.4,21.73,21.73,0,0,0,45.63,43.7,3.5,3.5,0,0,1,41,38.45,28.73,28.73,0,0,1,87.56,68.1,3.5,3.5,0,0,1,87,69.24C84.61,72.33,80.43,74.17,75.8,74.17Z"/><path class="cls-2" d="M60,88.73A28.75,28.75,0,0,1,33.1,49.88a3.5,3.5,0,0,1,6.05-.9c.78,1,2.72,2.19,5.63,2.19S49.64,50,50.42,49A3.5,3.5,0,0,1,56,49c.78,1,2.72,2.19,5.63,2.19S66.46,50,67.24,49a3.5,3.5,0,1,1,5.55,4.26c-2.37,3.09-6.55,4.93-11.18,4.93a15.33,15.33,0,0,1-8.41-2.37,15.32,15.32,0,0,1-8.41,2.38,16.06,16.06,0,0,1-6.3-1.25A21.76,21.76,0,0,0,60,81.73a21.52,21.52,0,0,0,9.55-2.2,3.5,3.5,0,1,1,3.08,6.29A28.45,28.45,0,0,1,60,88.73Z"/></g></g></svg>
