<svg xmlns="http://www.w3.org/2000/svg" viewBox="0 0 120 120"><defs><style>.cls-1{fill:none;opacity:0.5;}.cls-2{fill:#333;}</style></defs><title>se_wifi</title><g id="Layer_2" data-name="Layer 2"><g id="icons-open_converted_333333_120x120" data-name="icons-open converted_333333_120x120"><rect class="cls-1" width="120" height="120"/><path class="cls-2" d="M60,101.65a7.12,7.12,0,1,1,7.12-7.12A7.13,7.13,0,0,1,60,101.65Z"/><path class="cls-2" d="M119,44.76c-13.5-16.54-35.57-26.41-59-26.41S14.48,28.22,1,44.76A4.34,4.34,0,0,0,7.7,50.25C19.57,35.71,39.12,27,60,27s40.43,8.68,52.3,23.23A4.34,4.34,0,1,0,119,44.76Z"/><path class="cls-2" d="M60,41.48c-15.6,0-30.42,6.66-42.87,19.25a4.34,4.34,0,1,0,6.17,6.1C34.08,55.93,46.77,50.16,60,50.16s25.91,5.77,36.69,16.67a4.34,4.34,0,1,0,6.17-6.1C90.41,48.14,75.59,41.48,60,41.48Z"/><path class="cls-2" d="M60,64.62c-9.18,0-18,4.1-26.35,12.19A4.34,4.34,0,0,0,39.71,83C46.34,76.57,53.16,73.3,60,73.3S73.66,76.57,80.28,83a4.34,4.34,0,1,0,6.06-6.21C78,68.72,69.18,64.62,60,64.62Z"/></g></g></svg>
