<svg xmlns="http://www.w3.org/2000/svg" viewBox="0 0 120 120"><defs><style>.cls-1{fill:none;}.cls-2{fill:#333;}</style></defs><title>se_bedroom</title><g id="Layer_2" data-name="Layer 2"><g id="icons-open_converted_333333_120x120" data-name="icons-open converted_333333_120x120"><rect class="cls-1" width="120" height="120"/><path class="cls-2" d="M19.44,85.12C11.18,85.12,3.7,81,.39,74.52a3.5,3.5,0,0,1,0-3.2c3.31-6.44,10.79-10.6,19.05-10.6s15.74,4.16,19.05,10.6a3.5,3.5,0,0,1,0,3.2C35.19,81,27.71,85.12,19.44,85.12ZM7.63,72.92c2.48,3.21,6.91,5.2,11.81,5.2s9.33-2,11.81-5.2c-2.48-3.21-6.91-5.2-11.81-5.2S10.12,69.71,7.63,72.92Z"/><path class="cls-2" d="M116.5,120H100.81a3.5,3.5,0,0,1-3.5-3.5V93.31c0-4.33-1.41-7.52-4.3-9.75C85.94,78.1,70,78,49,83.2v21.87a3.5,3.5,0,0,1-3.5,3.5H20.67v7.92a3.5,3.5,0,0,1-3.5,3.5H3.5A3.5,3.5,0,0,1,0,116.5V89.08a3.5,3.5,0,0,1,7,0V113h6.67v-7.92a3.5,3.5,0,0,1,3.5-3.5H42V80.49a3.5,3.5,0,0,1,2.61-3.38C78,68.3,91.94,73.89,97.28,78c4.67,3.59,7,8.74,7,15.3V113H113V42.9L60,7.7,5.44,43.94a3.5,3.5,0,1,1-3.87-5.83L58.06.58a3.5,3.5,0,0,1,3.87,0l56.5,37.52A3.5,3.5,0,0,1,120,41V116.5A3.5,3.5,0,0,1,116.5,120Z"/></g></g></svg>
