<svg xmlns="http://www.w3.org/2000/svg" viewBox="0 0 120 120"><defs><style>.cls-1{fill:none;}.cls-2{fill:#333;}</style></defs><title>se_kitchen</title><g id="Layer_2" data-name="Layer 2"><g id="icons-open_converted_333333_120x120" data-name="icons-open converted_333333_120x120"><rect class="cls-1" width="120" height="120"/><circle class="cls-2" cx="31.73" cy="68.37" r="3.43" transform="matrix(0.02, -1, 1, 0.02, -37.27, 98.7)"/><circle class="cls-2" cx="74.55" cy="68.37" r="3.42"/><circle class="cls-2" cx="88.24" cy="68.37" r="3.42"/><path class="cls-2" d="M118.44,38.11,62.15.59a3.5,3.5,0,0,0-3.88,0L1.56,38.35a3.5,3.5,0,1,0,3.88,5.83L60.21,7.71,113,42.89V113h-9V55a3.5,3.5,0,0,0-3.5-3.5H72.56l2.49-9.18h5.48a3.5,3.5,0,0,0,0-7H40.65a3.5,3.5,0,0,0-3.35,4.52l3.56,11.66H19.52A3.5,3.5,0,0,0,16,55v58H3.5a3.5,3.5,0,0,0,0,7h16a3.5,3.5,0,0,0,3.5-3.5h0v-58H45.59A3.5,3.5,0,0,0,48.93,54L45.37,42.3H67.8L64.61,54.07A3.5,3.5,0,0,0,68,58.48H97v58a3.5,3.5,0,0,0,3.5,3.5h16a3.5,3.5,0,0,0,3.5-3.5V41A3.5,3.5,0,0,0,118.44,38.11Z"/><path class="cls-2" d="M87.87,77.7H32.13a3.5,3.5,0,0,0-3.5,3.5v28.54a3.5,3.5,0,0,0,3.5,3.5H87.87a3.5,3.5,0,0,0,3.5-3.5V81.2A3.5,3.5,0,0,0,87.87,77.7Zm-3.5,28.54H35.63V84.7H84.37Z"/></g></g></svg>
