<svg xmlns="http://www.w3.org/2000/svg" viewBox="0 0 120 120"><defs><style>.cls-1{fill:none;}.cls-2{fill:#333;}</style></defs><title>se_lounge_livingroom</title><g id="Layer_2" data-name="Layer 2"><g id="icons-open_converted_333333_120x120" data-name="icons-open converted_333333_120x120"><rect class="cls-1" width="120" height="120"/><path class="cls-2" d="M118.44,38.09,61.94.58a3.5,3.5,0,0,0-3.87,0L1.56,38.09a3.5,3.5,0,0,0,3.87,5.83L60,7.7l53,35.18V113H79.25V105a3.5,3.5,0,0,0-3.5-3.5H35.21a3.5,3.5,0,0,0-3.5,3.5V113H25v-14c0-7.31,2.33-12.54,6.93-15.55,9.07-5.92,25.88-3,38.52,2.58a3.5,3.5,0,0,0,4.91-3.21c0-10,.61-23.7,5.91-27.15,2.16-1.41,5.51-1.29,10,.34l-4,46.82a3.5,3.5,0,0,0,7,.6L98.48,54a3.5,3.5,0,0,0-2.08-3.5c-8-3.55-14.23-3.78-18.92-.72-7,4.56-8.71,15.69-9,27.84a66.39,66.39,0,0,0-21.37-4.45V59.32H62a3.5,3.5,0,0,0,3.11-5.11L56,36.6a3.5,3.5,0,0,0-3.11-1.89H34.22a3.5,3.5,0,0,0-3.11,1.89L22,54.14a3.5,3.5,0,0,0,3.11,5.11h7a3.5,3.5,0,1,0,0-7H30.89l5.46-10.54H50.81l5.48,10.62H43.59a3.5,3.5,0,0,0-3.5,3.5V73.48a28.84,28.84,0,0,0-11.94,4C23.54,80.53,18,86.69,18,98.93v17.53a3.5,3.5,0,0,0,3.5,3.5H35.21a3.5,3.5,0,0,0,3.5-3.5v-7.92H72.25v8a3.5,3.5,0,0,0,4,3.46h40.2a3.5,3.5,0,0,0,3.5-3.5V41A3.5,3.5,0,0,0,118.44,38.09Z"/></g></g></svg>
