<svg xmlns="http://www.w3.org/2000/svg" viewBox="0 0 120 120"><defs><style>.cls-1{fill:none;}.cls-2{fill:#333;}</style></defs><title>se_house_stairs</title><g id="Layer_2" data-name="Layer 2"><g id="icons-open_converted_333333_120x120" data-name="icons-open converted_333333_120x120"><rect class="cls-1" width="120" height="120"/><path class="cls-2" d="M116.48,120H3.52A3.5,3.5,0,0,1,0,116.5v-22A3.5,3.5,0,0,1,3.52,91H18.21V76.35a3.5,3.5,0,0,1,3.5-3.5H36.39V58.16a3.5,3.5,0,0,1,3.5-3.5H54.58V40a3.5,3.5,0,0,1,3.5-3.5H76.26a3.5,3.5,0,0,1,0,7H61.58V58.16a3.5,3.5,0,0,1-3.5,3.5H43.39V76.35a3.5,3.5,0,0,1-3.5,3.5H25.21V94.53a3.5,3.5,0,0,1-3.5,3.5H7v15H113V42.89L60,7.7,5.46,43.92a3.5,3.5,0,0,1-3.87-5.83L58.06.58a3.5,3.5,0,0,1,3.87,0l56.48,37.51A3.5,3.5,0,0,1,120,41V116.5A3.5,3.5,0,0,1,116.48,120Z"/></g></g></svg>
