<svg xmlns="http://www.w3.org/2000/svg" viewBox="0 0 120 120"><defs><style>.cls-1{fill:none;}.cls-2{fill:#333;}</style></defs><title>se_house_swimming_pool</title><g id="Layer_2" data-name="Layer 2"><g id="icons-open_converted_333333_120x120" data-name="icons-open converted_333333_120x120"><rect class="cls-1" width="120" height="120"/><path class="cls-2" d="M116.12,77.22h-32V40.51A12.45,12.45,0,0,0,98.58,38,12.46,12.46,0,0,0,120,29.31C120,13.24,102.35.16,80.66.16S41.31,13.24,41.31,29.31A12.46,12.46,0,0,0,62.74,38a12.41,12.41,0,0,0,5.65,3.37,3.5,3.5,0,0,0,1.86-6.75,5.48,5.48,0,0,1-4-5.27,3.5,3.5,0,1,0-7,0,5.46,5.46,0,0,1-10.92,0c0-12.21,14.51-22.15,32.35-22.15S113,17.1,113,29.31a5.46,5.46,0,0,1-10.92,0,3.5,3.5,0,0,0-7,0,5.46,5.46,0,0,1-10.92.21v-.21a3.5,3.5,0,0,0-7,0c0,.11,0,.21,0,.31V77.22h-45V20.47a3.5,3.5,0,0,0-1.56-2.92L5.44.81A3.5,3.5,0,0,0,1.56,6.64l23.65,15.7V80.72a3.5,3.5,0,0,0,3.5,3.5h87.41a3.5,3.5,0,0,0,0-7Z"/><path class="cls-2" d="M115.07,112.19a14.47,14.47,0,0,1-15.32-4.42,3.5,3.5,0,0,0-5.32,0,14.45,14.45,0,0,1-22,0,3.49,3.49,0,0,0-2.66-1.23h0a3.5,3.5,0,0,0-2.66,1.23,14.45,14.45,0,0,1-22,0,3.5,3.5,0,0,0-2.66-1.23h0a3.5,3.5,0,0,0-2.66,1.23,14.44,14.44,0,0,1-11,5.08,3.5,3.5,0,0,0,0,7,21.42,21.42,0,0,0,13.66-4.91,21.45,21.45,0,0,0,27.33,0,21.45,21.45,0,0,0,27.33,0,21.48,21.48,0,0,0,20.08,3.94,3.5,3.5,0,0,0-2.09-6.68Z"/><path class="cls-2" d="M115.07,96a14.47,14.47,0,0,1-15.32-4.42,3.5,3.5,0,0,0-5.32,0,14.46,14.46,0,0,1-22,0,3.5,3.5,0,0,0-2.66-1.23h0a3.5,3.5,0,0,0-2.66,1.23,14.46,14.46,0,0,1-22,0,3.5,3.5,0,0,0-2.66-1.23h0a3.5,3.5,0,0,0-2.66,1.23,14.45,14.45,0,0,1-11,5.08,3.5,3.5,0,0,0,0,7,21.42,21.42,0,0,0,13.66-4.91,21.45,21.45,0,0,0,27.33,0,21.45,21.45,0,0,0,27.32,0,21.48,21.48,0,0,0,20.08,3.93,3.5,3.5,0,0,0-2.1-6.68Z"/></g></g></svg>
